# MagicaVoxel @ Ephtracy

# group
o 

# material
mtllib Aspirasus.mtl
usemtl palette

# normals
vn -1 0 0
vn 1 0 0
vn 0 0 1
vn 0 0 -1
vn 0 -1 0
vn 0 1 0

# texcoords
vt 0.861328 0.5
vt 0.962891 0.5
vt 0.978516 0.5
vt 0.994141 0.5

# verts
v -1 0 0.1
v -1 0 -1.1
v -1 0.1 0.2
v -1 0.1 0.1
v -1 0.2 0.2
v -1 0.2 -1.1
v -0.9 0 0.2
v -0.9 0 0.1
v -0.9 0 -1.1
v -0.9 0 -1.2
v -0.9 0.1 0.3
v -0.9 0.1 0.2
v -0.9 0.1 0.1
v -0.9 0.2 0.3
v -0.9 0.2 0.2
v -0.9 0.2 -1.1
v -0.9 0.2 -1.2
v -0.8 0 -1.2
v -0.8 0 -1.3
v -0.8 0.2 0.3
v -0.8 0.2 0.1
v -0.8 0.2 -1.2
v -0.8 0.2 -1.3
v -0.8 0.3 0.3
v -0.8 0.3 0.1
v -0.7 0.1 0.4
v -0.7 0.1 0.3
v -0.7 0.2 0.4
v -0.7 0.2 0.3
v -0.6 0.2 0.4
v -0.6 0.2 0.3
v -0.6 0.3 0.4
v -0.6 0.3 0.3
v -0.5 0.3 0.4
v -0.5 0.3 0.2
v -0.5 0.4 0.4
v -0.5 0.4 0.2
v -0.4 0.4 0.3
v -0.4 0.4 0.2
v -0.4 0.5 0.3
v -0.4 0.5 0.2
v -0.3 0.4 0.4
v -0.3 0.4 0.3
v -0.3 0.5 0.4
v -0.3 0.5 0.3
v 0.3 0.2 0.7
v 0.3 0.2 -0.1
v 0.3 0.3 0.4
v 0.3 0.3 0.2
v 0.3 0.5 0.4
v 0.3 0.5 0.2
v 0.3 0.6 0.7
v 0.3 0.6 -0.1
v 0.4 0 -1
v 0.4 0 -1.1
v 0.4 0 -1.3
v 0.4 0 -1.4
v 0.4 0.1 0.8
v 0.4 0.1 -0.2
v 0.4 0.2 0.7
v 0.4 0.2 -0.1
v 0.4 0.2 -1
v 0.4 0.2 -1.1
v 0.4 0.2 -1.3
v 0.4 0.2 -1.4
v 0.4 0.6 0.8
v 0.4 0.6 0.7
v 0.4 0.6 -0.1
v 0.4 0.6 -0.2
v 0.4 0.7 0.7
v 0.4 0.7 -0.1
v 0.5 0 -0.7
v 0.5 0 -1
v 0.5 0 -1.4
v 0.5 0 -1.7
v 0.5 0.2 -0.7
v 0.5 0.2 -1
v 0.5 0.2 -1.4
v 0.5 0.2 -1.7
v 0.7 0.1 0.9
v 0.7 0.1 0.8
v 0.7 0.1 -0.2
v 0.7 0.1 -0.3
v 0.7 0.4 0.9
v 0.7 0.4 0.8
v 0.7 0.4 -0.2
v 0.7 0.4 -0.3
v 0.8 0 0.9
v 0.8 0 0.8
v 0.8 0 -0.2
v 0.8 0 -0.3
v 0.8 0.1 0.9
v 0.8 0.1 0.8
v 0.8 0.1 -0.2
v 0.8 0.1 -0.3
v 0.8 0.4 0.9
v 0.8 0.4 0.8
v 0.8 0.4 -0.2
v 0.8 0.4 -0.3
v 0.8 0.5 0.9
v 0.8 0.5 0.8
v 0.8 0.5 -0.2
v 0.8 0.5 -0.3
v 0.9 0.2 0.7
v 0.9 0.2 -0.1
v 0.9 0.3 0.7
v 0.9 0.3 -0.1
v 1.3 0.2 0.7
v 1.3 0.2 -0.1
v 1.3 0.6 0.7
v 1.3 0.6 -0.1
v -0.8 0 0.1
v -0.8 0 -1
v -0.8 0.1 0.1
v -0.8 0.1 0
v -0.8 0.2 0
v -0.8 0.2 -1
v -0.7 0 0.2
v -0.7 0 0.1
v -0.7 0 -1
v -0.7 0 -1.1
v -0.7 0.1 0.2
v -0.7 0.1 0.1
v -0.7 0.1 0
v -0.7 0.2 0.1
v -0.7 0.2 0
v -0.7 0.2 -1
v -0.7 0.2 -1.1
v -0.6 0.1 0.3
v -0.6 0.1 0.1
v -0.6 0.2 0.3
v -0.6 0.2 0.1
v -0.5 0.1 0.4
v -0.5 0.1 0.3
v -0.5 0.2 0.4
v -0.5 0.2 0.3
v -0.5 0.2 0.2
v -0.5 0.2 0.1
v -0.5 0.3 0.2
v -0.5 0.3 0.1
v -0.2 0.2 0.4
v -0.2 0.2 0.2
v -0.2 0.3 0.4
v -0.2 0.3 0.2
v 0.4 0.2 0.7
v 0.4 0.2 -0.1
v 0.4 0.3 0.4
v 0.4 0.3 0.2
v 0.4 0.5 0.4
v 0.4 0.5 0.2
v 0.4 0.6 0.7
v 0.4 0.6 -0.1
v 0.6 0 -0.7
v 0.6 0 -1.7
v 0.6 0.2 -0.7
v 0.6 0.2 -1.7
v 1 0.2 0.7
v 1 0.2 -0.1
v 1 0.3 0.7
v 1 0.3 -0.1
v 1.1 0 0.9
v 1.1 0 0.8
v 1.1 0 -0.2
v 1.1 0 -0.3
v 1.1 0.1 0.9
v 1.1 0.1 0.8
v 1.1 0.1 -0.2
v 1.1 0.1 -0.3
v 1.1 0.4 0.9
v 1.1 0.4 0.8
v 1.1 0.4 -0.2
v 1.1 0.4 -0.3
v 1.1 0.5 0.9
v 1.1 0.5 0.8
v 1.1 0.5 -0.2
v 1.1 0.5 -0.3
v 1.2 0.1 0.9
v 1.2 0.1 0.8
v 1.2 0.1 -0.2
v 1.2 0.1 -0.3
v 1.2 0.4 0.9
v 1.2 0.4 0.8
v 1.2 0.4 -0.2
v 1.2 0.4 -0.3
v 1.3 0.1 0.8
v 1.3 0.1 -0.2
v 1.3 0.2 0.7
v 1.3 0.2 -0.1
v 1.3 0.6 0.8
v 1.3 0.6 0.7
v 1.3 0.6 -0.1
v 1.3 0.6 -0.2
v 1.3 0.7 0.7
v 1.3 0.7 -0.1
v 1.4 0.2 0.7
v 1.4 0.2 -0.1
v 1.4 0.6 0.7
v 1.4 0.6 -0.1
v 0.7 0.1 0.9
v 0.7 0.4 0.9
v 0.8 0 0.9
v 0.8 0.1 0.9
v 0.8 0.4 0.9
v 0.8 0.5 0.9
v 0.9 0.2 0.9
v 0.9 0.3 0.9
v 1 0.2 0.9
v 1 0.3 0.9
v 1.1 0 0.9
v 1.1 0.1 0.9
v 1.1 0.4 0.9
v 1.1 0.5 0.9
v 1.2 0.1 0.9
v 1.2 0.4 0.9
v 0.4 0.1 0.8
v 0.4 0.6 0.8
v 0.7 0.1 0.8
v 0.7 0.4 0.8
v 0.8 0.4 0.8
v 0.8 0.5 0.8
v 1.1 0.4 0.8
v 1.1 0.5 0.8
v 1.2 0.1 0.8
v 1.2 0.4 0.8
v 1.3 0.1 0.8
v 1.3 0.6 0.8
v 0.3 0.2 0.7
v 0.3 0.6 0.7
v 0.4 0.2 0.7
v 0.4 0.6 0.7
v 0.4 0.7 0.7
v 1.3 0.2 0.7
v 1.3 0.6 0.7
v 1.3 0.7 0.7
v 1.4 0.2 0.7
v 1.4 0.6 0.7
v -0.7 0.1 0.4
v -0.7 0.2 0.4
v -0.6 0.2 0.4
v -0.6 0.3 0.4
v -0.5 0.1 0.4
v -0.5 0.2 0.4
v -0.5 0.3 0.4
v -0.5 0.4 0.4
v -0.3 0.4 0.4
v -0.3 0.5 0.4
v -0.2 0.2 0.4
v -0.2 0.3 0.4
v 0.3 0.3 0.4
v 0.3 0.5 0.4
v -0.9 0.1 0.3
v -0.9 0.2 0.3
v -0.8 0.2 0.3
v -0.8 0.3 0.3
v -0.7 0.1 0.3
v -0.7 0.2 0.3
v -0.6 0.2 0.3
v -0.6 0.3 0.3
v -0.4 0.4 0.3
v -0.4 0.5 0.3
v -0.3 0.4 0.3
v -0.3 0.5 0.3
v -1 0.1 0.2
v -1 0.2 0.2
v -0.9 0 0.2
v -0.9 0.1 0.2
v -0.9 0.2 0.2
v -0.7 0 0.2
v -0.7 0.1 0.2
v -1 0 0.1
v -1 0.1 0.1
v -0.9 0 0.1
v -0.9 0.1 0.1
v 0.4 0.2 -0.1
v 0.4 0.6 -0.1
v 0.9 0.2 -0.1
v 0.9 0.3 -0.1
v 1 0.2 -0.1
v 1 0.3 -0.1
v 1.3 0.2 -0.1
v 1.3 0.6 -0.1
v 0.8 0 -0.2
v 0.8 0.1 -0.2
v 1.1 0 -0.2
v 1.1 0.1 -0.2
v 0.5 0 -0.7
v 0.5 0.2 -0.7
v 0.6 0 -0.7
v 0.6 0.2 -0.7
v -0.8 0 -1
v -0.8 0.2 -1
v -0.7 0 -1
v -0.7 0.2 -1
v 0.4 0 -1
v 0.4 0.2 -1
v 0.5 0 -1
v 0.5 0.2 -1
v -0.7 0 -1.1
v -0.7 0.2 -1.1
v 1.19209e-07 0 -1.1
v 1.19209e-07 0.2 -1.1
v 0.4 0 -1.1
v 0.4 0.2 -1.1
v 0.8 0 0.8
v 0.8 0.1 0.8
v 1.1 0 0.8
v 1.1 0.1 0.8
v 0.4 0.2 0.7
v 0.4 0.6 0.7
v 0.9 0.2 0.7
v 0.9 0.3 0.7
v 1 0.2 0.7
v 1 0.3 0.7
v 1.3 0.2 0.7
v 1.3 0.6 0.7
v -0.6 0.1 0.3
v -0.6 0.2 0.3
v -0.5 0.1 0.3
v -0.5 0.2 0.3
v -0.5 0.2 0.2
v -0.5 0.3 0.2
v -0.5 0.4 0.2
v -0.4 0.4 0.2
v -0.4 0.5 0.2
v -0.2 0.2 0.2
v -0.2 0.3 0.2
v 0.3 0.3 0.2
v 0.3 0.5 0.2
v -0.8 0 0.1
v -0.8 0.1 0.1
v -0.8 0.2 0.1
v -0.8 0.3 0.1
v -0.7 0 0.1
v -0.7 0.1 0.1
v -0.7 0.2 0.1
v -0.6 0.1 0.1
v -0.6 0.2 0.1
v -0.5 0.2 0.1
v -0.5 0.3 0.1
v -0.8 0.1 0
v -0.8 0.2 0
v -0.7 0.1 0
v -0.7 0.2 0
v 0.3 0.2 -0.1
v 0.3 0.6 -0.1
v 0.4 0.2 -0.1
v 0.4 0.6 -0.1
v 0.4 0.7 -0.1
v 1.3 0.2 -0.1
v 1.3 0.6 -0.1
v 1.3 0.7 -0.1
v 1.4 0.2 -0.1
v 1.4 0.6 -0.1
v 0.4 0.1 -0.2
v 0.4 0.6 -0.2
v 0.7 0.1 -0.2
v 0.7 0.4 -0.2
v 0.8 0.4 -0.2
v 0.8 0.5 -0.2
v 1.1 0.4 -0.2
v 1.1 0.5 -0.2
v 1.2 0.1 -0.2
v 1.2 0.4 -0.2
v 1.3 0.1 -0.2
v 1.3 0.6 -0.2
v 0.7 0.1 -0.3
v 0.7 0.4 -0.3
v 0.8 0 -0.3
v 0.8 0.1 -0.3
v 0.8 0.4 -0.3
v 0.8 0.5 -0.3
v 0.9 0.2 -0.3
v 0.9 0.3 -0.3
v 1 0.2 -0.3
v 1 0.3 -0.3
v 1.1 0 -0.3
v 1.1 0.1 -0.3
v 1.1 0.4 -0.3
v 1.1 0.5 -0.3
v 1.2 0.1 -0.3
v 1.2 0.4 -0.3
v -1 0 -1.1
v -1 0.2 -1.1
v -0.9 0 -1.1
v -0.9 0.2 -1.1
v -0.9 0 -1.2
v -0.9 0.2 -1.2
v -0.8 0 -1.2
v -0.8 0.2 -1.2
v -0.8 0 -1.3
v -0.8 0.2 -1.3
v 1.19209e-07 0 -1.3
v 1.19209e-07 0.2 -1.3
v 0.4 0 -1.3
v 0.4 0.2 -1.3
v 0.4 0 -1.4
v 0.4 0.2 -1.4
v 0.5 0 -1.4
v 0.5 0.2 -1.4
v 0.5 0 -1.7
v 0.5 0.2 -1.7
v 0.6 0 -1.7
v 0.6 0.2 -1.7
v 0.8 0 0.9
v 1.1 0 0.9
v 0.8 0 0.8
v 1.1 0 0.8
v -0.9 0 0.2
v -0.7 0 0.2
v -1 0 0.1
v -0.9 0 0.1
v -0.8 0 0.1
v -0.7 0 0.1
v 0.8 0 -0.2
v 1.1 0 -0.2
v 0.8 0 -0.3
v 1.1 0 -0.3
v 0.5 0 -0.7
v 0.6 0 -0.7
v -0.8 0 -1
v -0.7 0 -1
v 0.4 0 -1
v 0.5 0 -1
v -1 0 -1.1
v -0.9 0 -1.1
v -0.7 0 -1.1
v 1.19209e-07 0 -1.1
v 0.4 0 -1.1
v -0.9 0 -1.2
v -0.8 0 -1.2
v -0.8 0 -1.3
v 1.19209e-07 0 -1.3
v 0.4 0 -1.3
v 0.4 0 -1.4
v 0.5 0 -1.4
v 0.5 0 -1.7
v 0.6 0 -1.7
v 0.7 0.1 0.9
v 0.8 0.1 0.9
v 1.1 0.1 0.9
v 1.2 0.1 0.9
v 0.4 0.1 0.8
v 0.7 0.1 0.8
v 0.8 0.1 0.8
v 1.1 0.1 0.8
v 1.2 0.1 0.8
v 1.3 0.1 0.8
v -0.7 0.1 0.4
v -0.5 0.1 0.4
v -0.9 0.1 0.3
v -0.7 0.1 0.3
v -0.6 0.1 0.3
v -0.5 0.1 0.3
v -1 0.1 0.2
v -0.9 0.1 0.2
v -0.7 0.1 0.2
v -1 0.1 0.1
v -0.9 0.1 0.1
v -0.8 0.1 0.1
v -0.7 0.1 0.1
v -0.6 0.1 0.1
v -0.8 0.1 0
v -0.7 0.1 0
v 0.4 0.1 -0.2
v 0.7 0.1 -0.2
v 0.8 0.1 -0.2
v 1.1 0.1 -0.2
v 1.2 0.1 -0.2
v 1.3 0.1 -0.2
v 0.7 0.1 -0.3
v 0.8 0.1 -0.3
v 1.1 0.1 -0.3
v 1.2 0.1 -0.3
v 0.3 0.2 0.7
v 0.4 0.2 0.7
v 1.3 0.2 0.7
v 1.4 0.2 0.7
v -0.5 0.2 0.4
v -0.2 0.2 0.4
v -0.6 0.2 0.3
v -0.5 0.2 0.3
v -0.5 0.2 0.2
v -0.2 0.2 0.2
v -0.6 0.2 0.1
v -0.5 0.2 0.1
v 0.3 0.2 -0.1
v 0.4 0.2 -0.1
v 1.3 0.2 -0.1
v 1.4 0.2 -0.1
v -0.2 0.3 0.4
v 0.3 0.3 0.4
v -0.2 0.3 0.2
v 0.3 0.3 0.2
v 0.4 0.6 0.7
v 1.3 0.6 0.7
v 0.5 0.6 0.6
v 0.8 0.6 0.6
v 1.1 0.6 0.4
v 1.2 0.6 0.4
v 1.1 0.6 0.1
v 1.2 0.6 0.1
v 0.5 0.6 0
v 0.8 0.6 0
v 0.4 0.6 -0.1
v 1.3 0.6 -0.1
v 0.4 0.2 0.7
v 0.9 0.2 0.7
v 1 0.2 0.7
v 1.3 0.2 0.7
v -0.7 0.2 0.4
v -0.6 0.2 0.4
v -0.9 0.2 0.3
v -0.8 0.2 0.3
v -0.7 0.2 0.3
v -0.6 0.2 0.3
v -1 0.2 0.2
v -0.9 0.2 0.2
v -0.8 0.2 0.1
v -0.7 0.2 0.1
v -0.8 0.2 0
v -0.7 0.2 0
v 0.4 0.2 -0.1
v 0.9 0.2 -0.1
v 1 0.2 -0.1
v 1.3 0.2 -0.1
v 0.5 0.2 -0.7
v 0.6 0.2 -0.7
v -0.8 0.2 -1
v -0.7 0.2 -1
v 0.4 0.2 -1
v 0.5 0.2 -1
v -1 0.2 -1.1
v -0.9 0.2 -1.1
v -0.7 0.2 -1.1
v 1.19209e-07 0.2 -1.1
v 0.4 0.2 -1.1
v -0.9 0.2 -1.2
v -0.8 0.2 -1.2
v -0.8 0.2 -1.3
v 1.19209e-07 0.2 -1.3
v 0.4 0.2 -1.3
v 0.4 0.2 -1.4
v 0.5 0.2 -1.4
v 0.5 0.2 -1.7
v 0.6 0.2 -1.7
v 0.9 0.3 0.7
v 1 0.3 0.7
v -0.6 0.3 0.4
v -0.5 0.3 0.4
v -0.8 0.3 0.3
v -0.6 0.3 0.3
v -0.5 0.3 0.2
v -0.8 0.3 0.1
v -0.5 0.3 0.1
v 0.9 0.3 -0.1
v 1 0.3 -0.1
v 0.7 0.4 0.9
v 0.8 0.4 0.9
v 1.1 0.4 0.9
v 1.2 0.4 0.9
v 0.7 0.4 0.8
v 0.8 0.4 0.8
v 1.1 0.4 0.8
v 1.2 0.4 0.8
v -0.5 0.4 0.4
v -0.3 0.4 0.4
v -0.4 0.4 0.3
v -0.3 0.4 0.3
v -0.5 0.4 0.2
v -0.4 0.4 0.2
v 0.7 0.4 -0.2
v 0.8 0.4 -0.2
v 1.1 0.4 -0.2
v 1.2 0.4 -0.2
v 0.7 0.4 -0.3
v 0.8 0.4 -0.3
v 1.1 0.4 -0.3
v 1.2 0.4 -0.3
v 0.8 0.5 0.9
v 1.1 0.5 0.9
v 0.8 0.5 0.8
v 1.1 0.5 0.8
v -0.3 0.5 0.4
v 0.3 0.5 0.4
v -0.4 0.5 0.3
v -0.3 0.5 0.3
v -0.4 0.5 0.2
v 0.3 0.5 0.2
v 0.8 0.5 -0.2
v 1.1 0.5 -0.2
v 0.8 0.5 -0.3
v 1.1 0.5 -0.3
v 0.4 0.6 0.8
v 1.3 0.6 0.8
v 0.3 0.6 0.7
v 0.4 0.6 0.7
v 1.3 0.6 0.7
v 1.4 0.6 0.7
v 0.3 0.6 -0.1
v 0.4 0.6 -0.1
v 1.3 0.6 -0.1
v 1.4 0.6 -0.1
v 0.4 0.6 -0.2
v 1.3 0.6 -0.2
v 0.4 0.7 0.7
v 1.3 0.7 0.7
v 0.5 0.7 0.6
v 0.8 0.7 0.6
v 1.1 0.7 0.4
v 1.2 0.7 0.4
v 1.1 0.7 0.1
v 1.2 0.7 0.1
v 0.5 0.7 0
v 0.8 0.7 0
v 0.4 0.7 -0.1
v 1.3 0.7 -0.1

# faces
f 4/4/1 2/4/1 1/4/1
f 5/4/1 4/4/1 3/4/1
f 6/4/1 2/4/1 4/4/1
f 6/4/1 4/4/1 5/4/1
f 12/4/1 8/4/1 7/4/1
f 13/4/1 8/4/1 12/4/1
f 14/4/1 12/4/1 11/4/1
f 15/4/1 12/4/1 14/4/1
f 16/4/1 10/4/1 9/4/1
f 17/4/1 10/4/1 16/4/1
f 22/4/1 19/4/1 18/4/1
f 23/4/1 19/4/1 22/4/1
f 24/4/1 21/4/1 20/4/1
f 25/4/1 21/4/1 24/4/1
f 28/4/1 27/4/1 26/4/1
f 29/4/1 27/4/1 28/4/1
f 32/4/1 31/4/1 30/4/1
f 33/4/1 31/4/1 32/4/1
f 36/4/1 35/4/1 34/4/1
f 37/4/1 35/4/1 36/4/1
f 40/4/1 39/4/1 38/4/1
f 41/4/1 39/4/1 40/4/1
f 44/4/1 43/4/1 42/4/1
f 45/4/1 43/4/1 44/4/1
f 48/1/1 47/1/1 46/1/1
f 49/1/1 47/1/1 48/1/1
f 50/1/1 48/1/1 46/1/1
f 51/1/1 47/1/1 49/1/1
f 52/1/1 50/1/1 46/1/1
f 52/1/1 51/1/1 50/1/1
f 53/1/1 47/1/1 51/1/1
f 53/1/1 51/1/1 52/1/1
f 60/1/1 59/1/1 58/1/1
f 61/1/1 59/1/1 60/1/1
f 62/3/1 55/3/1 54/3/1
f 63/3/1 55/3/1 62/3/1
f 64/3/1 57/3/1 56/3/1
f 65/3/1 57/3/1 64/3/1
f 66/1/1 60/1/1 58/1/1
f 67/1/1 60/1/1 66/1/1
f 68/1/1 59/1/1 61/1/1
f 69/1/1 59/1/1 68/1/1
f 70/1/1 68/1/1 67/1/1
f 71/1/1 68/1/1 70/1/1
f 76/3/1 73/3/1 72/3/1
f 77/3/1 73/3/1 76/3/1
f 78/3/1 75/3/1 74/3/1
f 79/3/1 75/3/1 78/3/1
f 84/4/1 81/4/1 80/4/1
f 85/4/1 81/4/1 84/4/1
f 86/4/1 83/4/1 82/4/1
f 87/4/1 83/4/1 86/4/1
f 92/4/1 89/4/1 88/4/1
f 93/4/1 89/4/1 92/4/1
f 94/4/1 91/4/1 90/4/1
f 95/4/1 91/4/1 94/4/1
f 100/4/1 97/4/1 96/4/1
f 101/4/1 97/4/1 100/4/1
f 102/4/1 99/4/1 98/4/1
f 103/4/1 99/4/1 102/4/1
f 106/3/1 105/3/1 104/3/1
f 107/3/1 105/3/1 106/3/1
f 110/1/1 109/1/1 108/1/1
f 111/1/1 109/1/1 110/1/1
f 112/4/2 113/4/2 114/4/2
f 114/4/2 113/4/2 115/4/2
f 115/4/2 113/4/2 116/4/2
f 116/4/2 113/4/2 117/4/2
f 118/4/2 119/4/2 122/4/2
f 122/4/2 119/4/2 123/4/2
f 123/4/2 124/4/2 125/4/2
f 125/4/2 124/4/2 126/4/2
f 120/4/2 121/4/2 127/4/2
f 127/4/2 121/4/2 128/4/2
f 129/4/2 130/4/2 131/4/2
f 131/4/2 130/4/2 132/4/2
f 133/4/2 134/4/2 135/4/2
f 135/4/2 134/4/2 136/4/2
f 137/4/2 138/4/2 139/4/2
f 139/4/2 138/4/2 140/4/2
f 141/4/2 142/4/2 143/4/2
f 143/4/2 142/4/2 144/4/2
f 145/1/2 146/1/2 147/1/2
f 147/1/2 146/1/2 148/1/2
f 145/1/2 147/1/2 149/1/2
f 147/4/2 148/4/2 149/4/2
f 148/1/2 146/1/2 150/1/2
f 149/4/2 148/4/2 150/4/2
f 145/1/2 149/1/2 151/1/2
f 149/1/2 150/1/2 151/1/2
f 150/1/2 146/1/2 152/1/2
f 151/1/2 150/1/2 152/1/2
f 153/3/2 154/3/2 155/3/2
f 155/3/2 154/3/2 156/3/2
f 157/3/2 158/3/2 159/3/2
f 159/3/2 158/3/2 160/3/2
f 161/4/2 162/4/2 165/4/2
f 165/4/2 162/4/2 166/4/2
f 163/4/2 164/4/2 167/4/2
f 167/4/2 164/4/2 168/4/2
f 169/4/2 170/4/2 173/4/2
f 173/4/2 170/4/2 174/4/2
f 171/4/2 172/4/2 175/4/2
f 175/4/2 172/4/2 176/4/2
f 177/4/2 178/4/2 181/4/2
f 181/4/2 178/4/2 182/4/2
f 179/4/2 180/4/2 183/4/2
f 183/4/2 180/4/2 184/4/2
f 185/1/2 186/1/2 187/1/2
f 187/1/2 186/1/2 188/1/2
f 185/1/2 187/1/2 189/1/2
f 189/1/2 187/1/2 190/1/2
f 188/1/2 186/1/2 191/1/2
f 191/1/2 186/1/2 192/1/2
f 190/1/2 191/1/2 193/1/2
f 193/1/2 191/1/2 194/1/2
f 195/1/2 196/1/2 197/1/2
f 197/1/2 196/1/2 198/1/2
f 202/4/3 200/4/3 199/4/3
f 203/4/3 200/4/3 202/4/3
f 205/2/3 203/2/3 202/2/3
f 206/2/3 203/2/3 205/2/3
f 207/2/3 205/2/3 202/2/3
f 207/3/3 206/3/3 205/3/3
f 208/2/3 203/2/3 206/2/3
f 208/3/3 206/3/3 207/3/3
f 209/4/3 202/4/3 201/4/3
f 210/2/3 207/2/3 202/2/3
f 210/4/3 202/4/3 209/4/3
f 210/2/3 208/2/3 207/2/3
f 211/2/3 203/2/3 208/2/3
f 211/2/3 208/2/3 210/2/3
f 211/4/3 204/4/3 203/4/3
f 212/4/3 204/4/3 211/4/3
f 213/4/3 211/4/3 210/4/3
f 214/4/3 211/4/3 213/4/3
f 217/1/3 216/1/3 215/1/3
f 218/1/3 216/1/3 217/1/3
f 219/1/3 216/1/3 218/1/3
f 220/1/3 216/1/3 219/1/3
f 222/1/3 216/1/3 220/1/3
f 224/1/3 222/1/3 221/1/3
f 225/1/3 224/1/3 223/1/3
f 226/1/3 216/1/3 222/1/3
f 226/1/3 224/1/3 225/1/3
f 226/1/3 222/1/3 224/1/3
f 229/1/3 228/1/3 227/1/3
f 230/1/3 228/1/3 229/1/3
f 233/1/3 231/1/3 230/1/3
f 234/1/3 231/1/3 233/1/3
f 235/1/3 233/1/3 232/1/3
f 236/1/3 233/1/3 235/1/3
f 239/4/3 238/4/3 237/4/3
f 241/4/3 239/4/3 237/4/3
f 241/4/3 240/4/3 239/4/3
f 242/4/3 240/4/3 241/4/3
f 243/4/3 240/4/3 242/4/3
f 245/4/3 244/4/3 243/4/3
f 245/4/3 243/4/3 242/4/3
f 247/4/3 245/4/3 242/4/3
f 247/4/3 246/4/3 245/4/3
f 248/4/3 246/4/3 247/4/3
f 249/4/3 246/4/3 248/4/3
f 250/4/3 246/4/3 249/4/3
f 253/4/3 252/4/3 251/4/3
f 255/4/3 253/4/3 251/4/3
f 255/4/3 254/4/3 253/4/3
f 256/4/3 254/4/3 255/4/3
f 257/4/3 254/4/3 256/4/3
f 258/4/3 254/4/3 257/4/3
f 261/4/3 260/4/3 259/4/3
f 262/4/3 260/4/3 261/4/3
f 266/4/3 264/4/3 263/4/3
f 267/4/3 264/4/3 266/4/3
f 268/4/3 266/4/3 265/4/3
f 269/4/3 266/4/3 268/4/3
f 272/4/3 271/4/3 270/4/3
f 273/4/3 271/4/3 272/4/3
f 276/1/3 275/1/3 274/1/3
f 277/1/3 275/1/3 276/1/3
f 279/1/3 275/1/3 277/1/3
f 280/1/3 279/1/3 278/1/3
f 281/1/3 275/1/3 279/1/3
f 281/1/3 279/1/3 280/1/3
f 284/4/3 283/4/3 282/4/3
f 285/4/3 283/4/3 284/4/3
f 288/3/3 287/3/3 286/3/3
f 289/3/3 287/3/3 288/3/3
f 292/4/3 291/4/3 290/4/3
f 293/4/3 291/4/3 292/4/3
f 296/3/3 295/3/3 294/3/3
f 297/3/3 295/3/3 296/3/3
f 300/4/3 299/4/3 298/4/3
f 301/4/3 299/4/3 300/4/3
f 302/3/3 301/3/3 300/3/3
f 303/3/3 301/3/3 302/3/3
f 304/4/4 305/4/4 306/4/4
f 306/4/4 305/4/4 307/4/4
f 308/1/4 309/1/4 310/1/4
f 310/1/4 309/1/4 311/1/4
f 311/1/4 309/1/4 313/1/4
f 312/1/4 313/1/4 314/1/4
f 313/1/4 309/1/4 315/1/4
f 314/1/4 313/1/4 315/1/4
f 316/4/4 317/4/4 318/4/4
f 318/4/4 317/4/4 319/4/4
f 320/4/4 321/4/4 323/4/4
f 321/4/4 322/4/4 323/4/4
f 320/4/4 323/4/4 325/4/4
f 323/4/4 324/4/4 325/4/4
f 325/4/4 324/4/4 326/4/4
f 326/4/4 324/4/4 327/4/4
f 327/4/4 324/4/4 328/4/4
f 329/4/4 330/4/4 333/4/4
f 333/4/4 330/4/4 334/4/4
f 331/4/4 332/4/4 335/4/4
f 334/4/4 335/4/4 336/4/4
f 335/4/4 332/4/4 337/4/4
f 336/4/4 335/4/4 337/4/4
f 337/4/4 332/4/4 338/4/4
f 338/4/4 332/4/4 339/4/4
f 340/4/4 341/4/4 342/4/4
f 342/4/4 341/4/4 343/4/4
f 344/1/4 345/1/4 346/1/4
f 346/1/4 345/1/4 347/1/4
f 347/1/4 348/1/4 350/1/4
f 350/1/4 348/1/4 351/1/4
f 349/1/4 350/1/4 352/1/4
f 352/1/4 350/1/4 353/1/4
f 354/1/4 355/1/4 356/1/4
f 356/1/4 355/1/4 357/1/4
f 357/1/4 355/1/4 358/1/4
f 358/1/4 355/1/4 359/1/4
f 359/1/4 355/1/4 361/1/4
f 360/1/4 361/1/4 363/1/4
f 362/1/4 363/1/4 364/1/4
f 361/1/4 355/1/4 365/1/4
f 364/1/4 363/1/4 365/1/4
f 363/1/4 361/1/4 365/1/4
f 366/4/4 367/4/4 369/4/4
f 369/4/4 367/4/4 370/4/4
f 369/2/4 370/2/4 372/2/4
f 372/2/4 370/2/4 373/2/4
f 369/2/4 372/2/4 374/2/4
f 372/3/4 373/3/4 374/3/4
f 373/2/4 370/2/4 375/2/4
f 374/3/4 373/3/4 375/3/4
f 368/4/4 369/4/4 376/4/4
f 369/2/4 374/2/4 377/2/4
f 376/4/4 369/4/4 377/4/4
f 374/2/4 375/2/4 377/2/4
f 375/2/4 370/2/4 378/2/4
f 377/2/4 375/2/4 378/2/4
f 370/4/4 371/4/4 378/4/4
f 378/4/4 371/4/4 379/4/4
f 377/4/4 378/4/4 380/4/4
f 380/4/4 378/4/4 381/4/4
f 382/4/4 383/4/4 384/4/4
f 384/4/4 383/4/4 385/4/4
f 386/4/4 387/4/4 388/4/4
f 388/4/4 387/4/4 389/4/4
f 390/4/4 391/4/4 392/4/4
f 392/4/4 391/4/4 393/4/4
f 392/3/4 393/3/4 394/3/4
f 394/3/4 393/3/4 395/3/4
f 396/3/4 397/3/4 398/3/4
f 398/3/4 397/3/4 399/3/4
f 400/3/4 401/3/4 402/3/4
f 402/3/4 401/3/4 403/3/4
f 406/4/5 405/4/5 404/4/5
f 407/4/5 405/4/5 406/4/5
f 411/4/5 409/4/5 408/4/5
f 412/4/5 409/4/5 411/4/5
f 413/4/5 409/4/5 412/4/5
f 416/4/5 415/4/5 414/4/5
f 417/4/5 415/4/5 416/4/5
f 420/4/5 411/4/5 410/4/5
f 420/4/5 412/4/5 411/4/5
f 423/3/5 419/3/5 418/3/5
f 424/4/5 421/4/5 420/4/5
f 424/4/5 420/4/5 410/4/5
f 425/4/5 421/4/5 424/4/5
f 426/4/5 421/4/5 425/4/5
f 428/3/5 423/3/5 422/3/5
f 429/4/5 427/4/5 426/4/5
f 429/4/5 426/4/5 425/4/5
f 430/4/5 427/4/5 429/4/5
f 431/4/5 427/4/5 430/4/5
f 432/3/5 428/3/5 427/3/5
f 432/4/5 427/4/5 431/4/5
f 433/3/5 423/3/5 428/3/5
f 433/3/5 428/3/5 432/3/5
f 434/3/5 423/3/5 433/3/5
f 435/3/5 419/3/5 423/3/5
f 435/3/5 423/3/5 434/3/5
f 436/3/5 419/3/5 435/3/5
f 437/3/5 419/3/5 436/3/5
f 443/4/5 439/4/5 438/4/5
f 444/4/5 439/4/5 443/4/5
f 445/4/5 441/4/5 440/4/5
f 446/4/5 441/4/5 445/4/5
f 451/4/5 449/4/5 448/4/5
f 452/4/5 449/4/5 451/4/5
f 453/4/5 449/4/5 452/4/5
f 455/4/5 451/4/5 450/4/5
f 455/4/5 452/4/5 451/4/5
f 456/4/5 452/4/5 455/4/5
f 457/4/5 455/4/5 454/4/5
f 458/4/5 455/4/5 457/4/5
f 460/4/5 452/4/5 456/4/5
f 461/4/5 452/4/5 460/4/5
f 462/4/5 460/4/5 459/4/5
f 463/4/5 460/4/5 462/4/5
f 464/1/5 444/1/5 443/1/5
f 464/1/5 443/1/5 442/1/5
f 464/1/5 445/1/5 444/1/5
f 464/1/5 446/1/5 445/1/5
f 464/1/5 447/1/5 446/1/5
f 465/1/5 447/1/5 464/1/5
f 466/1/5 447/1/5 465/1/5
f 467/1/5 447/1/5 466/1/5
f 468/1/5 447/1/5 467/1/5
f 469/1/5 447/1/5 468/1/5
f 470/4/5 466/4/5 465/4/5
f 471/4/5 466/4/5 470/4/5
f 472/4/5 468/4/5 467/4/5
f 473/4/5 468/4/5 472/4/5
f 481/4/5 479/4/5 478/4/5
f 482/4/5 479/4/5 481/4/5
f 482/4/5 481/4/5 480/4/5
f 483/4/5 479/4/5 482/4/5
f 484/4/5 482/4/5 480/4/5
f 485/4/5 482/4/5 484/4/5
f 486/1/5 475/1/5 474/1/5
f 487/1/5 475/1/5 486/1/5
f 488/1/5 477/1/5 476/1/5
f 489/1/5 477/1/5 488/1/5
f 492/4/5 491/4/5 490/4/5
f 493/4/5 491/4/5 492/4/5
f 496/1/5 495/1/5 494/1/5
f 497/1/5 495/1/5 496/1/5
f 498/1/5 495/1/5 497/1/5
f 499/1/5 495/1/5 498/1/5
f 500/1/5 498/1/5 497/1/5
f 500/3/5 499/3/5 498/3/5
f 501/1/5 495/1/5 499/1/5
f 501/3/5 499/3/5 500/3/5
f 502/1/5 496/1/5 494/1/5
f 502/3/5 497/3/5 496/3/5
f 503/1/5 501/1/5 500/1/5
f 503/3/5 497/3/5 502/3/5
f 503/1/5 500/1/5 497/1/5
f 504/1/5 502/1/5 494/1/5
f 504/1/5 503/1/5 502/1/5
f 505/1/5 495/1/5 501/1/5
f 505/1/5 503/1/5 504/1/5
f 505/1/5 501/1/5 503/1/5
f 510/4/6 511/4/6 514/4/6
f 514/4/6 511/4/6 515/4/6
f 512/4/6 513/4/6 517/4/6
f 517/4/6 513/4/6 518/4/6
f 516/4/6 517/4/6 518/4/6
f 516/4/6 518/4/6 520/4/6
f 518/4/6 519/4/6 520/4/6
f 520/4/6 519/4/6 521/4/6
f 506/1/6 507/1/6 522/1/6
f 522/1/6 507/1/6 523/1/6
f 508/1/6 509/1/6 524/1/6
f 524/1/6 509/1/6 525/1/6
f 516/4/6 520/4/6 528/4/6
f 526/3/6 527/3/6 531/3/6
f 528/4/6 529/4/6 532/4/6
f 516/4/6 528/4/6 532/4/6
f 532/4/6 529/4/6 533/4/6
f 533/4/6 529/4/6 534/4/6
f 530/3/6 531/3/6 536/3/6
f 534/4/6 535/4/6 537/4/6
f 533/4/6 534/4/6 537/4/6
f 537/4/6 535/4/6 538/4/6
f 538/4/6 535/4/6 539/4/6
f 535/3/6 536/3/6 540/3/6
f 539/4/6 535/4/6 540/4/6
f 536/3/6 531/3/6 541/3/6
f 540/3/6 536/3/6 541/3/6
f 541/3/6 531/3/6 542/3/6
f 531/3/6 527/3/6 543/3/6
f 542/3/6 531/3/6 543/3/6
f 543/3/6 527/3/6 544/3/6
f 544/3/6 527/3/6 545/3/6
f 548/4/6 549/4/6 551/4/6
f 551/4/6 549/4/6 552/4/6
f 550/4/6 551/4/6 552/4/6
f 550/4/6 552/4/6 553/4/6
f 553/4/6 552/4/6 554/4/6
f 546/3/6 547/3/6 555/3/6
f 555/3/6 547/3/6 556/3/6
f 557/4/6 558/4/6 561/4/6
f 561/4/6 558/4/6 562/4/6
f 559/4/6 560/4/6 563/4/6
f 563/4/6 560/4/6 564/4/6
f 565/4/6 566/4/6 567/4/6
f 567/4/6 566/4/6 568/4/6
f 565/4/6 567/4/6 569/4/6
f 569/4/6 567/4/6 570/4/6
f 571/4/6 572/4/6 575/4/6
f 575/4/6 572/4/6 576/4/6
f 573/4/6 574/4/6 577/4/6
f 577/4/6 574/4/6 578/4/6
f 579/4/6 580/4/6 581/4/6
f 581/4/6 580/4/6 582/4/6
f 583/4/6 584/4/6 586/4/6
f 585/4/6 586/4/6 587/4/6
f 586/4/6 584/4/6 588/4/6
f 587/4/6 586/4/6 588/4/6
f 589/4/6 590/4/6 591/4/6
f 591/4/6 590/4/6 592/4/6
f 593/1/6 594/1/6 596/1/6
f 596/1/6 594/1/6 597/1/6
f 595/1/6 596/1/6 599/1/6
f 599/1/6 596/1/6 600/1/6
f 597/1/6 598/1/6 601/1/6
f 601/1/6 598/1/6 602/1/6
f 600/1/6 601/1/6 603/1/6
f 603/1/6 601/1/6 604/1/6
f 605/1/6 606/1/6 607/1/6
f 607/1/6 606/1/6 608/1/6
f 608/1/6 606/1/6 609/1/6
f 609/1/6 606/1/6 610/1/6
f 608/1/6 609/1/6 611/1/6
f 609/3/6 610/3/6 611/3/6
f 610/1/6 606/1/6 612/1/6
f 611/3/6 610/3/6 612/3/6
f 605/1/6 607/1/6 613/1/6
f 607/3/6 608/3/6 613/3/6
f 611/1/6 612/1/6 614/1/6
f 613/3/6 608/3/6 614/3/6
f 608/1/6 611/1/6 614/1/6
f 605/1/6 613/1/6 615/1/6
f 613/1/6 614/1/6 615/1/6
f 612/1/6 606/1/6 616/1/6
f 615/1/6 614/1/6 616/1/6
f 614/1/6 612/1/6 616/1/6
