# MagicaVoxel @ Ephtracy

# group
o 

# material
mtllib Poste radio.mtl
usemtl palette

# normals
vn -1 0 0
vn 1 0 0
vn 0 0 1
vn 0 0 -1
vn 0 -1 0
vn 0 1 0

# texcoords
vt 0.841797 0.5
vt 0.873047 0.5
vt 0.970703 0.5
vt 0.982422 0.5
vt 0.994141 0.5

# verts
v -0.8 0.1 0.5
v -0.8 0.1 -5.96046e-08
v -0.8 0.6 0.5
v -0.8 0.6 -5.96046e-08
v -0.7 0 0.5
v -0.7 0 -5.96046e-08
v -0.7 0.1 0.6
v -0.7 0.1 0.5
v -0.7 0.1 -5.96046e-08
v -0.7 0.1 -0.1
v -0.7 0.6 0.6
v -0.7 0.6 0.5
v -0.7 0.6 -5.96046e-08
v -0.7 0.6 -0.1
v -0.7 0.7 0.5
v -0.7 0.7 -5.96046e-08
v -0.6 0.7 0.3
v -0.6 0.7 0.2
v -0.6 0.8 0.3
v -0.6 0.8 0.2
v -0.3 0.7 0.3
v -0.3 0.7 0.2
v -0.3 0.8 0.3
v -0.3 0.8 0.2
v -0.1 0.7 0.3
v -0.1 0.7 0.2
v -0.1 1.1 0.3
v -0.1 1.1 0.2
v -0.5 0.7 0.3
v -0.5 0.7 0.2
v -0.5 0.8 0.3
v -0.5 0.8 0.2
v -0.2 0.7 0.3
v -0.2 0.7 0.2
v -0.2 0.8 0.3
v -0.2 0.8 0.2
v 5.96046e-08 0.7 0.3
v 5.96046e-08 0.7 0.2
v 5.96046e-08 1.1 0.3
v 5.96046e-08 1.1 0.2
v 0.2 0 0.5
v 0.2 0 -5.96046e-08
v 0.2 0.1 0.6
v 0.2 0.1 0.5
v 0.2 0.1 -5.96046e-08
v 0.2 0.1 -0.1
v 0.2 0.6 0.6
v 0.2 0.6 0.5
v 0.2 0.6 -5.96046e-08
v 0.2 0.6 -0.1
v 0.2 0.7 0.5
v 0.2 0.7 -5.96046e-08
v 0.3 0.1 0.5
v 0.3 0.1 -5.96046e-08
v 0.3 0.6 0.5
v 0.3 0.6 -5.96046e-08
v -0.7 0.1 0.6
v -0.7 0.6 0.6
v -0.6 0.2 0.6
v -0.6 0.3 0.6
v -0.6 0.5 0.6
v -0.5 0.2 0.6
v -0.5 0.3 0.6
v -0.4 0.2 0.6
v -0.4 0.3 0.6
v -0.2 0.2 0.6
v -0.2 0.3 0.6
v 0.1 0.3 0.6
v 0.1 0.5 0.6
v 0.2 0.1 0.6
v 0.2 0.6 0.6
v -0.8 0.1 0.5
v -0.8 0.6 0.5
v -0.7 0 0.5
v -0.7 0.1 0.5
v -0.7 0.6 0.5
v -0.7 0.7 0.5
v 0.2 0 0.5
v 0.2 0.1 0.5
v 0.2 0.6 0.5
v 0.2 0.7 0.5
v 0.3 0.1 0.5
v 0.3 0.6 0.5
v -0.6 0.7 0.3
v -0.6 0.8 0.3
v -0.5 0.7 0.3
v -0.5 0.8 0.3
v -0.3 0.7 0.3
v -0.3 0.8 0.3
v -0.2 0.7 0.3
v -0.2 0.8 0.3
v -0.1 0.7 0.3
v -0.1 1.1 0.3
v 5.96046e-08 0.7 0.3
v 5.96046e-08 1.1 0.3
v -0.6 0.7 0.2
v -0.6 0.8 0.2
v -0.5 0.7 0.2
v -0.5 0.8 0.2
v -0.3 0.7 0.2
v -0.3 0.8 0.2
v -0.2 0.7 0.2
v -0.2 0.8 0.2
v -0.1 0.7 0.2
v -0.1 1.1 0.2
v 5.96046e-08 0.7 0.2
v 5.96046e-08 1.1 0.2
v -0.8 0.1 -5.96046e-08
v -0.8 0.6 -5.96046e-08
v -0.7 0 -5.96046e-08
v -0.7 0.1 -5.96046e-08
v -0.7 0.6 -5.96046e-08
v -0.7 0.7 -5.96046e-08
v 0.2 0 -5.96046e-08
v 0.2 0.1 -5.96046e-08
v 0.2 0.6 -5.96046e-08
v 0.2 0.7 -5.96046e-08
v 0.3 0.1 -5.96046e-08
v 0.3 0.6 -5.96046e-08
v -0.7 0.1 -0.1
v -0.7 0.6 -0.1
v 0.2 0.1 -0.1
v 0.2 0.6 -0.1
v -0.7 0 0.5
v 0.2 0 0.5
v -0.7 0 -5.96046e-08
v 0.2 0 -5.96046e-08
v -0.7 0.1 0.6
v 0.2 0.1 0.6
v -0.8 0.1 0.5
v -0.7 0.1 0.5
v 0.2 0.1 0.5
v 0.3 0.1 0.5
v -0.8 0.1 -5.96046e-08
v -0.7 0.1 -5.96046e-08
v 0.2 0.1 -5.96046e-08
v 0.3 0.1 -5.96046e-08
v -0.7 0.1 -0.1
v 0.2 0.1 -0.1
v -0.7 0.6 0.6
v 0.2 0.6 0.6
v -0.8 0.6 0.5
v -0.7 0.6 0.5
v 0.2 0.6 0.5
v 0.3 0.6 0.5
v -0.8 0.6 -5.96046e-08
v -0.7 0.6 -5.96046e-08
v 0.2 0.6 -5.96046e-08
v 0.3 0.6 -5.96046e-08
v -0.7 0.6 -0.1
v 0.2 0.6 -0.1
v -0.7 0.7 0.5
v 0.2 0.7 0.5
v -0.6 0.7 0.3
v -0.5 0.7 0.3
v -0.3 0.7 0.3
v -0.2 0.7 0.3
v -0.1 0.7 0.3
v 5.96046e-08 0.7 0.3
v -0.6 0.7 0.2
v -0.5 0.7 0.2
v -0.3 0.7 0.2
v -0.2 0.7 0.2
v -0.1 0.7 0.2
v 5.96046e-08 0.7 0.2
v -0.7 0.7 -5.96046e-08
v 0.2 0.7 -5.96046e-08
v -0.6 0.8 0.3
v -0.5 0.8 0.3
v -0.3 0.8 0.3
v -0.2 0.8 0.3
v -0.6 0.8 0.2
v -0.5 0.8 0.2
v -0.3 0.8 0.2
v -0.2 0.8 0.2
v -0.1 1.1 0.3
v 5.96046e-08 1.1 0.3
v -0.1 1.1 0.2
v 5.96046e-08 1.1 0.2

# faces
f 3/5/1 2/5/1 1/5/1
f 4/5/1 2/5/1 3/5/1
f 8/5/1 6/5/1 5/5/1
f 9/5/1 6/5/1 8/5/1
f 11/5/1 8/5/1 7/5/1
f 12/5/1 8/5/1 11/5/1
f 13/5/1 10/5/1 9/5/1
f 14/5/1 10/5/1 13/5/1
f 15/5/1 13/5/1 12/5/1
f 16/5/1 13/5/1 15/5/1
f 19/4/1 18/4/1 17/4/1
f 20/4/1 18/4/1 19/4/1
f 23/4/1 22/4/1 21/4/1
f 24/4/1 22/4/1 23/4/1
f 27/4/1 26/4/1 25/4/1
f 28/4/1 26/4/1 27/4/1
f 29/4/2 30/4/2 31/4/2
f 31/4/2 30/4/2 32/4/2
f 33/4/2 34/4/2 35/4/2
f 35/4/2 34/4/2 36/4/2
f 37/4/2 38/4/2 39/4/2
f 39/4/2 38/4/2 40/4/2
f 41/5/2 42/5/2 44/5/2
f 44/5/2 42/5/2 45/5/2
f 43/5/2 44/5/2 47/5/2
f 47/5/2 44/5/2 48/5/2
f 45/5/2 46/5/2 49/5/2
f 49/5/2 46/5/2 50/5/2
f 48/5/2 49/5/2 51/5/2
f 51/5/2 49/5/2 52/5/2
f 53/5/2 54/5/2 55/5/2
f 55/5/2 54/5/2 56/5/2
f 59/5/3 58/5/3 57/5/3
f 60/5/3 58/5/3 59/5/3
f 61/5/3 58/5/3 60/5/3
f 62/5/3 59/5/3 57/5/3
f 62/1/3 60/1/3 59/1/3
f 63/3/3 61/3/3 60/3/3
f 63/1/3 60/1/3 62/1/3
f 64/5/3 62/5/3 57/5/3
f 64/5/3 63/5/3 62/5/3
f 65/3/3 61/3/3 63/3/3
f 65/5/3 63/5/3 64/5/3
f 66/5/3 64/5/3 57/5/3
f 66/1/3 65/1/3 64/1/3
f 67/3/3 61/3/3 65/3/3
f 67/1/3 65/1/3 66/1/3
f 68/5/3 67/5/3 66/5/3
f 68/3/3 61/3/3 67/3/3
f 69/5/3 58/5/3 61/5/3
f 69/3/3 61/3/3 68/3/3
f 70/5/3 68/5/3 66/5/3
f 70/5/3 66/5/3 57/5/3
f 70/5/3 69/5/3 68/5/3
f 71/5/3 58/5/3 69/5/3
f 71/5/3 69/5/3 70/5/3
f 75/5/3 73/5/3 72/5/3
f 76/5/3 73/5/3 75/5/3
f 78/5/3 75/5/3 74/5/3
f 79/5/3 75/5/3 78/5/3
f 80/5/3 77/5/3 76/5/3
f 81/5/3 77/5/3 80/5/3
f 82/5/3 80/5/3 79/5/3
f 83/5/3 80/5/3 82/5/3
f 86/4/3 85/4/3 84/4/3
f 87/4/3 85/4/3 86/4/3
f 90/4/3 89/4/3 88/4/3
f 91/4/3 89/4/3 90/4/3
f 94/4/3 93/4/3 92/4/3
f 95/4/3 93/4/3 94/4/3
f 96/4/4 97/4/4 98/4/4
f 98/4/4 97/4/4 99/4/4
f 100/4/4 101/4/4 102/4/4
f 102/4/4 101/4/4 103/4/4
f 104/4/4 105/4/4 106/4/4
f 106/4/4 105/4/4 107/4/4
f 108/5/4 109/5/4 111/5/4
f 111/5/4 109/5/4 112/5/4
f 110/5/4 111/5/4 114/5/4
f 114/5/4 111/5/4 115/5/4
f 112/5/4 113/5/4 116/5/4
f 116/5/4 113/5/4 117/5/4
f 115/5/4 116/5/4 118/5/4
f 118/5/4 116/5/4 119/5/4
f 120/5/4 121/5/4 122/5/4
f 122/5/4 121/5/4 123/5/4
f 126/5/5 125/5/5 124/5/5
f 127/5/5 125/5/5 126/5/5
f 131/5/5 129/5/5 128/5/5
f 132/5/5 129/5/5 131/5/5
f 134/5/5 131/5/5 130/5/5
f 135/5/5 131/5/5 134/5/5
f 136/5/5 133/5/5 132/5/5
f 137/5/5 133/5/5 136/5/5
f 138/5/5 136/5/5 135/5/5
f 139/5/5 136/5/5 138/5/5
f 140/5/6 141/5/6 143/5/6
f 143/5/6 141/5/6 144/5/6
f 142/5/6 143/5/6 146/5/6
f 146/5/6 143/5/6 147/5/6
f 144/5/6 145/5/6 148/5/6
f 148/5/6 145/5/6 149/5/6
f 147/5/6 148/5/6 150/5/6
f 150/5/6 148/5/6 151/5/6
f 152/5/6 153/5/6 154/5/6
f 154/5/6 153/5/6 155/5/6
f 155/5/6 153/5/6 156/5/6
f 156/5/6 153/5/6 157/5/6
f 157/5/6 153/5/6 158/5/6
f 158/5/6 153/5/6 159/5/6
f 152/5/6 154/5/6 160/5/6
f 155/5/6 156/5/6 161/5/6
f 161/5/6 156/5/6 162/5/6
f 157/5/6 158/5/6 163/5/6
f 163/5/6 158/5/6 164/5/6
f 159/5/6 153/5/6 165/5/6
f 163/5/6 164/5/6 166/5/6
f 164/5/6 165/5/6 166/5/6
f 161/5/6 162/5/6 166/5/6
f 152/5/6 160/5/6 166/5/6
f 162/5/6 163/5/6 166/5/6
f 160/5/6 161/5/6 166/5/6
f 165/5/6 153/5/6 167/5/6
f 166/5/6 165/5/6 167/5/6
f 168/4/6 169/4/6 172/4/6
f 172/4/6 169/4/6 173/4/6
f 170/4/6 171/4/6 174/4/6
f 174/4/6 171/4/6 175/4/6
f 176/4/6 177/4/6 178/4/6
f 178/4/6 177/4/6 179/4/6
