# MagicaVoxel @ Ephtracy

# group
o 

# material
mtllib Switch.mtl
usemtl palette

# normals
vn -1 0 0
vn 1 0 0
vn 0 0 1
vn 0 0 -1
vn 0 -1 0
vn 0 1 0

# texcoords
vt 0.775391 0.5
vt 0.841797 0.5
vt 0.982422 0.5
vt 0.994141 0.5

# verts
v -0.7 0 0.3
v -0.7 0 0.2
v -0.7 0.4 0.3
v -0.7 0.4 0.2
v 5.96046e-08 0 0.3
v 5.96046e-08 0 0.2
v 5.96046e-08 0.4 0.3
v 5.96046e-08 0.4 0.2
v -0.7 0 0.3
v -0.7 0.4 0.3
v -0.6 0 0.3
v -0.6 0.4 0.3
v -0.5 0.1 0.3
v -0.5 0.3 0.3
v -0.2 0.1 0.3
v -0.2 0.3 0.3
v -0.1 0 0.3
v -0.1 0.4 0.3
v 5.96046e-08 0 0.3
v 5.96046e-08 0.4 0.3
v -0.7 0 0.2
v -0.7 0.4 0.2
v -0.6 0 0.2
v -0.6 0.4 0.2
v -0.5 0.1 0.2
v -0.5 0.3 0.2
v -0.2 0.1 0.2
v -0.2 0.3 0.2
v -0.1 0 0.2
v -0.1 0.4 0.2
v 5.96046e-08 0 0.2
v 5.96046e-08 0.4 0.2
v -0.7 0 0.3
v -0.6 0 0.3
v -0.1 0 0.3
v 5.96046e-08 0 0.3
v -0.7 0 0.2
v -0.6 0 0.2
v -0.1 0 0.2
v 5.96046e-08 0 0.2
v -0.7 0.4 0.3
v -0.6 0.4 0.3
v -0.1 0.4 0.3
v 5.96046e-08 0.4 0.3
v -0.7 0.4 0.2
v -0.6 0.4 0.2
v -0.1 0.4 0.2
v 5.96046e-08 0.4 0.2

# faces
f 3/2/1 2/2/1 1/2/1
f 4/2/1 2/2/1 3/2/1
f 5/1/2 6/1/2 7/1/2
f 7/1/2 6/1/2 8/1/2
f 11/2/3 10/2/3 9/2/3
f 12/2/3 10/2/3 11/2/3
f 13/4/3 12/4/3 11/4/3
f 14/4/3 12/4/3 13/4/3
f 15/4/3 13/4/3 11/4/3
f 15/3/3 14/3/3 13/3/3
f 16/4/3 12/4/3 14/4/3
f 16/3/3 14/3/3 15/3/3
f 17/4/3 15/4/3 11/4/3
f 17/4/3 16/4/3 15/4/3
f 18/4/3 12/4/3 16/4/3
f 18/4/3 16/4/3 17/4/3
f 19/1/3 18/1/3 17/1/3
f 20/1/3 18/1/3 19/1/3
f 21/2/4 22/2/4 23/2/4
f 23/2/4 22/2/4 24/2/4
f 23/4/4 24/4/4 25/4/4
f 25/4/4 24/4/4 26/4/4
f 23/4/4 25/4/4 27/4/4
f 25/3/4 26/3/4 27/3/4
f 26/4/4 24/4/4 28/4/4
f 27/3/4 26/3/4 28/3/4
f 23/4/4 27/4/4 29/4/4
f 27/4/4 28/4/4 29/4/4
f 28/4/4 24/4/4 30/4/4
f 29/4/4 28/4/4 30/4/4
f 29/1/4 30/1/4 31/1/4
f 31/1/4 30/1/4 32/1/4
f 37/2/5 34/2/5 33/2/5
f 38/4/5 35/4/5 34/4/5
f 38/2/5 34/2/5 37/2/5
f 39/1/5 36/1/5 35/1/5
f 39/4/5 35/4/5 38/4/5
f 40/1/5 36/1/5 39/1/5
f 41/2/6 42/2/6 45/2/6
f 42/4/6 43/4/6 46/4/6
f 45/2/6 42/2/6 46/2/6
f 43/1/6 44/1/6 47/1/6
f 46/4/6 43/4/6 47/4/6
f 47/1/6 44/1/6 48/1/6
