# MagicaVoxel @ Ephtracy

# group
o 

# material
mtllib Cleaning Machine.mtl
usemtl palette

# normals
vn -1 0 0
vn 1 0 0
vn 0 0 1
vn 0 0 -1
vn 0 -1 0
vn 0 1 0

# texcoords
vt 0.716797 0.5
vt 0.841797 0.5
vt 0.974609 0.5
vt 0.986328 0.5
vt 0.994141 0.5

# verts
v -1.4 0 1.4
v -1.4 0 1.3
v -1.4 0 1.2
v -1.4 0 -1.4
v -1.4 0.1 1.4
v -1.4 0.1 1.3
v -1.4 0.1 1.2
v -1.4 0.1 1.1
v -1.4 0.2 1.4
v -1.4 0.2 1.3
v -1.4 0.2 1.2
v -1.4 0.2 1.1
v -1.4 0.3 1.3
v -1.4 0.3 1.2
v -1.4 2.1 1.4
v -1.4 2.1 1.3
v -1.4 2.7 1.3
v -1.4 2.7 -1.4
v -0.4 1.9 1.6
v -0.4 1.9 1.4
v -0.4 2.1 1.6
v -0.4 2.1 1.4
v 0.5 1.9 1.5
v 0.5 1.9 1.4
v 0.5 2 1.5
v 0.5 2 1.4
v -0.3 1.9 1.5
v -0.3 1.9 1.4
v -0.3 2 1.5
v -0.3 2 1.4
v 0.6 1.9 1.6
v 0.6 1.9 1.4
v 0.6 2.1 1.6
v 0.6 2.1 1.4
v 1.6 0 1.4
v 1.6 0 1.3
v 1.6 0 1.2
v 1.6 0 -1.4
v 1.6 0.1 1.4
v 1.6 0.1 1.3
v 1.6 0.1 1.2
v 1.6 0.1 1.1
v 1.6 0.2 1.4
v 1.6 0.2 1.3
v 1.6 0.2 1.2
v 1.6 0.2 1.1
v 1.6 0.3 1.3
v 1.6 0.3 1.2
v 1.6 2.1 1.4
v 1.6 2.1 1.3
v 1.6 2.7 1.3
v 1.6 2.7 -1.4
v -0.4 1.9 1.6
v -0.4 2.1 1.6
v 0.6 1.9 1.6
v 0.6 2.1 1.6
v -1.4 0 1.4
v -1.4 0.1 1.4
v -1.4 0.2 1.4
v -1.4 2.1 1.4
v -1.3 0.1 1.4
v -1.3 0.2 1.4
v -0.4 1.9 1.4
v -0.4 2.1 1.4
v -0.3 1.9 1.4
v -0.3 2 1.4
v 0.5 1.9 1.4
v 0.5 2 1.4
v 0.6 1.9 1.4
v 0.6 2.1 1.4
v 1.5 0.1 1.4
v 1.5 0.2 1.4
v 1.6 0 1.4
v 1.6 0.1 1.4
v 1.6 0.2 1.4
v 1.6 2.1 1.4
v -1.4 2.1 1.3
v -1.4 2.7 1.3
v -1.3 2.3 1.3
v -1.3 2.6 1.3
v -1.2 2.3 1.3
v -1.2 2.5 1.3
v -0.9 2.3 1.3
v -0.9 2.5 1.3
v -0.7 2.4 1.3
v -0.7 2.5 1.3
v -0.6 2.4 1.3
v -0.6 2.5 1.3
v -0.5 2.4 1.3
v -0.5 2.5 1.3
v -0.4 2.4 1.3
v -0.4 2.5 1.3
v -0.3 2.3 1.3
v -0.3 2.6 1.3
v 1.6 2.1 1.3
v 1.6 2.7 1.3
v -0.3 1.9 1.5
v -0.3 2 1.5
v 0.5 1.9 1.5
v 0.5 2 1.5
v -1.4 0 -1.4
v -1.4 2.7 -1.4
v 1.6 0 -1.4
v 1.6 2.7 -1.4
v -1.4 0 1.4
v 1.6 0 1.4
v -1.4 0 1.3
v -1.3 0 1.3
v 1.5 0 1.3
v 1.6 0 1.3
v -1.4 0 1.2
v -1.3 0 1.2
v 1.5 0 1.2
v 1.6 0 1.2
v -1.4 0 -1.4
v 1.6 0 -1.4
v -0.4 1.9 1.6
v 0.6 1.9 1.6
v -0.3 1.9 1.5
v 0.5 1.9 1.5
v -0.4 1.9 1.4
v -0.3 1.9 1.4
v 0.5 1.9 1.4
v 0.6 1.9 1.4
v -0.3 2 1.5
v 0.5 2 1.5
v -0.3 2 1.4
v 0.5 2 1.4
v -0.4 2.1 1.6
v 0.6 2.1 1.6
v -1.4 2.1 1.4
v -0.4 2.1 1.4
v 0.6 2.1 1.4
v 1.6 2.1 1.4
v -1.4 2.1 1.3
v 1.6 2.1 1.3
v -1.4 2.7 1.3
v 1.6 2.7 1.3
v -1.4 2.7 -1.4
v 1.6 2.7 -1.4

# faces
f 5/4/1 2/4/1 1/4/1
f 6/5/1 3/5/1 2/5/1
f 6/4/1 2/4/1 5/4/1
f 7/3/1 4/3/1 3/3/1
f 7/5/1 3/5/1 6/5/1
f 8/3/1 4/3/1 7/3/1
f 9/5/1 6/5/1 5/5/1
f 9/5/1 7/5/1 6/5/1
f 9/5/1 8/5/1 7/5/1
f 10/5/1 8/5/1 9/5/1
f 11/5/1 8/5/1 10/5/1
f 12/3/1 4/3/1 8/3/1
f 12/5/1 8/5/1 11/5/1
f 13/5/1 11/5/1 10/5/1
f 13/4/1 10/4/1 9/4/1
f 14/3/1 12/3/1 11/3/1
f 14/5/1 11/5/1 13/5/1
f 15/4/1 13/4/1 9/4/1
f 16/3/1 14/3/1 13/3/1
f 16/4/1 13/4/1 15/4/1
f 17/3/1 14/3/1 16/3/1
f 18/3/1 4/3/1 12/3/1
f 18/3/1 14/3/1 17/3/1
f 18/3/1 12/3/1 14/3/1
f 21/5/1 20/5/1 19/5/1
f 22/5/1 20/5/1 21/5/1
f 25/5/1 24/5/1 23/5/1
f 26/5/1 24/5/1 25/5/1
f 27/5/2 28/5/2 29/5/2
f 29/5/2 28/5/2 30/5/2
f 31/5/2 32/5/2 33/5/2
f 33/5/2 32/5/2 34/5/2
f 35/4/2 36/4/2 39/4/2
f 36/5/2 37/5/2 40/5/2
f 39/4/2 36/4/2 40/4/2
f 37/3/2 38/3/2 41/3/2
f 40/5/2 37/5/2 41/5/2
f 41/3/2 38/3/2 42/3/2
f 39/5/2 40/5/2 43/5/2
f 40/5/2 41/5/2 43/5/2
f 41/5/2 42/5/2 43/5/2
f 43/5/2 42/5/2 44/5/2
f 44/5/2 42/5/2 45/5/2
f 42/3/2 38/3/2 46/3/2
f 45/5/2 42/5/2 46/5/2
f 44/5/2 45/5/2 47/5/2
f 43/4/2 44/4/2 47/4/2
f 45/3/2 46/3/2 48/3/2
f 47/5/2 45/5/2 48/5/2
f 43/4/2 47/4/2 49/4/2
f 47/3/2 48/3/2 50/3/2
f 49/4/2 47/4/2 50/4/2
f 50/3/2 48/3/2 51/3/2
f 46/3/2 38/3/2 52/3/2
f 51/3/2 48/3/2 52/3/2
f 48/3/2 46/3/2 52/3/2
f 55/5/3 54/5/3 53/5/3
f 56/5/3 54/5/3 55/5/3
f 61/4/3 58/4/3 57/4/3
f 61/5/3 59/5/3 58/5/3
f 62/4/3 60/4/3 59/4/3
f 62/5/3 59/5/3 61/5/3
f 63/4/3 62/4/3 61/4/3
f 63/4/3 60/4/3 62/4/3
f 64/4/3 60/4/3 63/4/3
f 65/4/3 63/4/3 61/4/3
f 67/4/3 65/4/3 61/4/3
f 67/4/3 66/4/3 65/4/3
f 68/4/3 66/4/3 67/4/3
f 69/4/3 67/4/3 61/4/3
f 71/4/3 61/4/3 57/4/3
f 71/4/3 70/4/3 69/4/3
f 71/4/3 69/4/3 61/4/3
f 72/4/3 70/4/3 71/4/3
f 73/4/3 71/4/3 57/4/3
f 74/5/3 72/5/3 71/5/3
f 74/4/3 71/4/3 73/4/3
f 75/4/3 70/4/3 72/4/3
f 75/5/3 72/5/3 74/5/3
f 76/4/3 70/4/3 75/4/3
f 79/3/3 78/3/3 77/3/3
f 80/3/3 78/3/3 79/3/3
f 81/3/3 79/3/3 77/3/3
f 81/5/3 80/5/3 79/5/3
f 82/5/3 80/5/3 81/5/3
f 83/3/3 81/3/3 77/3/3
f 83/1/3 82/1/3 81/1/3
f 84/5/3 80/5/3 82/5/3
f 84/1/3 82/1/3 83/1/3
f 85/5/3 84/5/3 83/5/3
f 86/5/3 80/5/3 84/5/3
f 86/5/3 84/5/3 85/5/3
f 87/5/3 85/5/3 83/5/3
f 87/2/3 86/2/3 85/2/3
f 88/5/3 80/5/3 86/5/3
f 88/2/3 86/2/3 87/2/3
f 89/5/3 87/5/3 83/5/3
f 89/5/3 88/5/3 87/5/3
f 90/5/3 80/5/3 88/5/3
f 90/5/3 88/5/3 89/5/3
f 91/5/3 89/5/3 83/5/3
f 91/2/3 90/2/3 89/2/3
f 92/5/3 80/5/3 90/5/3
f 92/2/3 90/2/3 91/2/3
f 93/3/3 83/3/3 77/3/3
f 93/5/3 91/5/3 83/5/3
f 93/5/3 92/5/3 91/5/3
f 94/3/3 78/3/3 80/3/3
f 94/5/3 92/5/3 93/5/3
f 94/5/3 80/5/3 92/5/3
f 95/3/3 93/3/3 77/3/3
f 95/3/3 94/3/3 93/3/3
f 96/3/3 78/3/3 94/3/3
f 96/3/3 94/3/3 95/3/3
f 97/5/4 98/5/4 99/5/4
f 99/5/4 98/5/4 100/5/4
f 101/3/4 102/3/4 103/3/4
f 103/3/4 102/3/4 104/3/4
f 107/4/5 106/4/5 105/4/5
f 108/4/5 106/4/5 107/4/5
f 109/4/5 106/4/5 108/4/5
f 110/4/5 106/4/5 109/4/5
f 111/5/5 108/5/5 107/5/5
f 112/3/5 109/3/5 108/3/5
f 112/5/5 108/5/5 111/5/5
f 113/5/5 110/5/5 109/5/5
f 113/3/5 109/3/5 112/3/5
f 114/5/5 110/5/5 113/5/5
f 115/3/5 112/3/5 111/3/5
f 115/3/5 113/3/5 112/3/5
f 115/3/5 114/3/5 113/3/5
f 116/3/5 114/3/5 115/3/5
f 119/5/5 118/5/5 117/5/5
f 120/5/5 118/5/5 119/5/5
f 121/5/5 119/5/5 117/5/5
f 122/5/5 119/5/5 121/5/5
f 123/5/5 118/5/5 120/5/5
f 124/5/5 118/5/5 123/5/5
f 127/5/5 126/5/5 125/5/5
f 128/5/5 126/5/5 127/5/5
f 129/5/6 130/5/6 132/5/6
f 132/5/6 130/5/6 133/5/6
f 131/4/6 132/4/6 135/4/6
f 133/4/6 134/4/6 135/4/6
f 132/4/6 133/4/6 135/4/6
f 135/4/6 134/4/6 136/4/6
f 137/3/6 138/3/6 139/3/6
f 139/3/6 138/3/6 140/3/6
