# MagicaVoxel @ Ephtracy

# group
o 

# material
mtllib Fridge.mtl
usemtl palette

# normals
vn -1 0 0
vn 1 0 0
vn 0 0 1
vn 0 0 -1
vn 0 -1 0
vn 0 1 0

# texcoords
vt 0.0332031 0.5
vt 0.728516 0.5
vt 0.767578 0.5
vt 0.958984 0.5
vt 0.962891 0.5
vt 0.994141 0.5

# verts
v -0.9 0 -0.2
v -0.9 0 -0.3
v -0.9 0 -1.3
v -0.9 1.3 -0.2
v -0.9 1.3 -0.3
v -0.9 1.3 -0.4
v -0.9 2 -0.2
v -0.9 2 -0.3
v -0.9 2 -0.4
v -0.9 3.3 -0.2
v -0.9 3.3 -0.3
v -0.9 3.3 -1.3
v -0.8 1.3 -0.2
v -0.8 1.3 -0.3
v -0.8 2 -0.2
v -0.8 2 -0.3
v 1 0 -0.2
v 1 0 -0.3
v 1 0 -1.3
v 1 1.6 -0.2
v 1 1.6 -0.3
v 1 1.7 -0.2
v 1 1.7 -0.3
v 1 3.3 -0.2
v 1 3.3 -0.3
v 1 3.3 -1.3
v -0.9 0 -0.2
v -0.9 1.3 -0.2
v -0.9 2 -0.2
v -0.9 3.3 -0.2
v -0.8 1.3 -0.2
v -0.8 2 -0.2
v -0.7 1.3 -0.2
v -0.7 1.6 -0.2
v -0.7 1.7 -0.2
v -0.7 2 -0.2
v -0.6 2.4 -0.2
v -0.6 2.9 -0.2
v -0.5 2.5 -0.2
v -0.5 2.6 -0.2
v -0.5 2.7 -0.2
v -0.5 2.8 -0.2
v -0.4 2.5 -0.2
v -0.4 2.6 -0.2
v -0.4 2.7 -0.2
v -0.4 2.8 -0.2
v -0.3 2.6 -0.2
v -0.3 2.8 -0.2
v -0.2 2.5 -0.2
v -0.2 2.6 -0.2
v -0.2 2.8 -0.2
v -0.1 2.4 -0.2
v -0.1 2.9 -0.2
v 0.1 2 -0.2
v 0.1 2.2 -0.2
v 0.1 2.4 -0.2
v 0.1 2.7 -0.2
v 0.2 2.1 -0.2
v 0.2 2.2 -0.2
v 0.4 2.4 -0.2
v 0.4 2.7 -0.2
v 0.6 2.4 -0.2
v 0.6 2.7 -0.2
v 0.8 2 -0.2
v 0.8 2.1 -0.2
v 0.8 2.4 -0.2
v 0.8 2.7 -0.2
v 1 0 -0.2
v 1 1.6 -0.2
v 1 1.7 -0.2
v 1 3.3 -0.2
v -0.9 1.3 -0.3
v -0.9 2 -0.3
v -0.8 1.3 -0.3
v -0.8 2 -0.3
v -0.9 0 -1.3
v -0.9 3.3 -1.3
v 1 0 -1.3
v 1 3.3 -1.3
v -0.9 0 -0.2
v 1 0 -0.2
v -0.9 0 -0.3
v 1 0 -0.3
v -0.9 0 -1.3
v 1 0 -1.3
v -0.9 2 -0.2
v -0.8 2 -0.2
v -0.9 2 -0.3
v -0.8 2 -0.3
v -0.9 1.3 -0.2
v -0.8 1.3 -0.2
v -0.9 1.3 -0.3
v -0.8 1.3 -0.3
v -0.9 3.3 -0.2
v 1 3.3 -0.2
v -0.9 3.3 -0.3
v 1 3.3 -0.3
v -0.9 3.3 -1.3
v 1 3.3 -1.3

# faces
f 4/5/1 2/5/1 1/5/1
f 5/4/1 3/4/1 2/4/1
f 5/5/1 2/5/1 4/5/1
f 6/4/1 3/4/1 5/4/1
f 8/6/1 6/6/1 5/6/1
f 9/4/1 3/4/1 6/4/1
f 9/6/1 6/6/1 8/6/1
f 10/5/1 8/5/1 7/5/1
f 11/4/1 9/4/1 8/4/1
f 11/5/1 8/5/1 10/5/1
f 12/4/1 3/4/1 9/4/1
f 12/4/1 9/4/1 11/4/1
f 15/6/1 14/6/1 13/6/1
f 16/6/1 14/6/1 15/6/1
f 17/5/2 18/5/2 20/5/2
f 18/4/2 19/4/2 21/4/2
f 20/5/2 18/5/2 21/5/2
f 20/6/2 21/6/2 22/6/2
f 21/4/2 19/4/2 23/4/2
f 22/6/2 21/6/2 23/6/2
f 22/5/2 23/5/2 24/5/2
f 23/4/2 19/4/2 25/4/2
f 24/5/2 23/5/2 25/5/2
f 25/4/2 19/4/2 26/4/2
f 31/5/3 28/5/3 27/5/3
f 32/5/3 30/5/3 29/5/3
f 33/5/3 31/5/3 27/5/3
f 33/6/3 32/6/3 31/6/3
f 34/6/3 32/6/3 33/6/3
f 35/6/3 32/6/3 34/6/3
f 36/5/3 30/5/3 32/5/3
f 36/6/3 32/6/3 35/6/3
f 37/5/3 36/5/3 35/5/3
f 37/5/3 30/5/3 36/5/3
f 38/5/3 30/5/3 37/5/3
f 39/4/3 38/4/3 37/4/3
f 40/4/3 38/4/3 39/4/3
f 41/4/3 38/4/3 40/4/3
f 42/4/3 38/4/3 41/4/3
f 43/4/3 39/4/3 37/4/3
f 43/3/3 40/3/3 39/3/3
f 44/2/3 41/2/3 40/2/3
f 44/3/3 40/3/3 43/3/3
f 45/3/3 42/3/3 41/3/3
f 45/2/3 41/2/3 44/2/3
f 46/4/3 38/4/3 42/4/3
f 46/3/3 42/3/3 45/3/3
f 47/2/3 45/2/3 44/2/3
f 47/2/3 44/2/3 43/2/3
f 47/2/3 46/2/3 45/2/3
f 48/4/3 38/4/3 46/4/3
f 48/2/3 46/2/3 47/2/3
f 49/2/3 47/2/3 43/2/3
f 49/4/3 43/4/3 37/4/3
f 50/3/3 48/3/3 47/3/3
f 50/2/3 47/2/3 49/2/3
f 51/4/3 38/4/3 48/4/3
f 51/3/3 48/3/3 50/3/3
f 52/5/3 37/5/3 35/5/3
f 52/4/3 50/4/3 49/4/3
f 52/4/3 51/4/3 50/4/3
f 52/4/3 49/4/3 37/4/3
f 53/4/3 38/4/3 51/4/3
f 53/4/3 51/4/3 52/4/3
f 53/5/3 30/5/3 38/5/3
f 54/5/3 52/5/3 35/5/3
f 54/5/3 53/5/3 52/5/3
f 55/5/3 53/5/3 54/5/3
f 56/5/3 53/5/3 55/5/3
f 57/5/3 53/5/3 56/5/3
f 58/4/3 55/4/3 54/4/3
f 59/1/3 56/1/3 55/1/3
f 59/4/3 55/4/3 58/4/3
f 60/4/3 57/4/3 56/4/3
f 60/1/3 56/1/3 59/1/3
f 60/1/3 59/1/3 58/1/3
f 61/5/3 53/5/3 57/5/3
f 61/4/3 57/4/3 60/4/3
f 62/1/3 60/1/3 58/1/3
f 62/1/3 61/1/3 60/1/3
f 63/5/3 53/5/3 61/5/3
f 63/1/3 61/1/3 62/1/3
f 64/5/3 54/5/3 35/5/3
f 64/4/3 58/4/3 54/4/3
f 65/1/3 62/1/3 58/1/3
f 65/4/3 58/4/3 64/4/3
f 66/4/3 63/4/3 62/4/3
f 66/1/3 62/1/3 65/1/3
f 67/5/3 53/5/3 63/5/3
f 67/4/3 63/4/3 66/4/3
f 68/5/3 33/5/3 27/5/3
f 68/5/3 34/5/3 33/5/3
f 69/6/3 35/6/3 34/6/3
f 69/5/3 34/5/3 68/5/3
f 70/5/3 67/5/3 66/5/3
f 70/6/3 35/6/3 69/6/3
f 70/5/3 66/5/3 65/5/3
f 70/5/3 65/5/3 64/5/3
f 70/5/3 64/5/3 35/5/3
f 71/5/3 53/5/3 67/5/3
f 71/5/3 67/5/3 70/5/3
f 71/5/3 30/5/3 53/5/3
f 74/6/3 73/6/3 72/6/3
f 75/6/3 73/6/3 74/6/3
f 76/4/4 77/4/4 78/4/4
f 78/4/4 77/4/4 79/4/4
f 82/5/5 81/5/5 80/5/5
f 83/5/5 81/5/5 82/5/5
f 84/4/5 83/4/5 82/4/5
f 85/4/5 83/4/5 84/4/5
f 88/5/5 87/5/5 86/5/5
f 89/5/5 87/5/5 88/5/5
f 90/5/6 91/5/6 92/5/6
f 92/5/6 91/5/6 93/5/6
f 94/5/6 95/5/6 96/5/6
f 96/5/6 95/5/6 97/5/6
f 96/4/6 97/4/6 98/4/6
f 98/4/6 97/4/6 99/4/6
