# MagicaVoxel @ Ephtracy

# group
o 

# material
mtllib Sink.mtl
usemtl palette

# normals
vn -1 0 0
vn 1 0 0
vn 0 0 1
vn 0 0 -1
vn 0 -1 0
vn 0 1 0

# texcoords
vt 0.841797 0.5
vt 0.919922 0.5
vt 0.962891 0.5
vt 0.978516 0.5
vt 0.986328 0.5
vt 0.994141 0.5

# verts
v -1 0 0.6
v -1 0 -0.6
v -1 2.4 0.6
v -1 2.4 -0.6
v -0.5 2.4 0.6
v -0.5 2.4 0.4
v -0.5 2.8 0.6
v -0.5 2.8 0.4
v -0.4 2.6 0.4
v -0.4 2.6 0.3
v -0.4 2.7 0.4
v -0.4 2.7 0.3
v -0.2 2.6 0.0999999
v -0.2 2.6 -5.96046e-08
v -0.2 2.7 0.4
v -0.2 2.7 0.0999999
v -0.2 2.8 0.4
v -0.2 2.8 -5.96046e-08
v 1.19209e-07 2.2 0.2
v 1.19209e-07 2.2 0.0999999
v 1.19209e-07 2.2 -5.96046e-08
v 1.19209e-07 2.2 -0.1
v 1.19209e-07 2.3 0.2
v 1.19209e-07 2.3 -0.1
v 1.19209e-07 2.6 0.4
v 1.19209e-07 2.6 0.3
v 1.19209e-07 2.7 0.4
v 1.19209e-07 2.7 0.3
v 0.6 2.3 0.4
v 0.6 2.3 -0.4
v 0.6 2.4 0.4
v 0.6 2.4 -0.4
v -0.9 2.3 0.4
v -0.9 2.3 -0.4
v -0.9 2.4 0.4
v -0.9 2.4 -0.4
v -0.3 2.2 0.2
v -0.3 2.2 0.0999999
v -0.3 2.2 -5.96046e-08
v -0.3 2.2 -0.1
v -0.3 2.3 0.2
v -0.3 2.3 -0.1
v -0.3 2.6 0.4
v -0.3 2.6 0.3
v -0.3 2.7 0.4
v -0.3 2.7 0.3
v -0.0999999 2.6 0.0999999
v -0.0999999 2.6 -5.96046e-08
v -0.0999999 2.7 0.4
v -0.0999999 2.7 0.0999999
v -0.0999999 2.8 0.4
v -0.0999999 2.8 -5.96046e-08
v 0.1 2.6 0.4
v 0.1 2.6 0.3
v 0.1 2.7 0.4
v 0.1 2.7 0.3
v 0.2 2.4 0.6
v 0.2 2.4 0.4
v 0.2 2.8 0.6
v 0.2 2.8 0.4
v 0.7 0 0.6
v 0.7 0 -0.6
v 0.7 2.4 0.6
v 0.7 2.4 -0.6
v -1 0 0.6
v -1 2.4 0.6
v -0.5 2.4 0.6
v -0.5 2.8 0.6
v 0.2 2.4 0.6
v 0.2 2.8 0.6
v 0.7 0 0.6
v 0.7 2.4 0.6
v -0.2 2.6 0.0999999
v -0.2 2.7 0.0999999
v -0.0999999 2.6 0.0999999
v -0.0999999 2.7 0.0999999
v -0.3 2.2 -0.1
v -0.3 2.3 -0.1
v -0.2 2.2 -0.1
v -0.0999999 2.2 -0.1
v 1.19209e-07 2.2 -0.1
v 1.19209e-07 2.3 -0.1
v -0.9 2.3 -0.4
v -0.9 2.4 -0.4
v 0.6 2.3 -0.4
v 0.6 2.4 -0.4
v -0.9 2.3 0.4
v -0.9 2.4 0.4
v -0.5 2.4 0.4
v -0.5 2.8 0.4
v -0.4 2.6 0.4
v -0.4 2.7 0.4
v -0.3 2.6 0.4
v -0.3 2.7 0.4
v -0.2 2.7 0.4
v -0.2 2.8 0.4
v -0.0999999 2.7 0.4
v -0.0999999 2.8 0.4
v 1.19209e-07 2.6 0.4
v 1.19209e-07 2.7 0.4
v 0.1 2.6 0.4
v 0.1 2.7 0.4
v 0.2 2.4 0.4
v 0.2 2.8 0.4
v 0.6 2.3 0.4
v 0.6 2.4 0.4
v -0.4 2.6 0.3
v -0.4 2.7 0.3
v -0.3 2.6 0.3
v -0.3 2.7 0.3
v 1.19209e-07 2.6 0.3
v 1.19209e-07 2.7 0.3
v 0.1 2.6 0.3
v 0.1 2.7 0.3
v -0.3 2.2 0.2
v -0.3 2.3 0.2
v -0.2 2.2 0.2
v -0.0999999 2.2 0.2
v 1.19209e-07 2.2 0.2
v 1.19209e-07 2.3 0.2
v -0.2 2.6 -5.96046e-08
v -0.2 2.8 -5.96046e-08
v -0.0999999 2.6 -5.96046e-08
v -0.0999999 2.8 -5.96046e-08
v -1 0 -0.6
v -1 2.4 -0.6
v 0.7 0 -0.6
v 0.7 2.4 -0.6
v -1 0 0.6
v 0.7 0 0.6
v -1 0 -0.6
v 0.7 0 -0.6
v -0.4 2.6 0.4
v -0.3 2.6 0.4
v 1.19209e-07 2.6 0.4
v 0.1 2.6 0.4
v -0.4 2.6 0.3
v -0.3 2.6 0.3
v 1.19209e-07 2.6 0.3
v 0.1 2.6 0.3
v -0.2 2.6 0.0999999
v -0.0999999 2.6 0.0999999
v -0.2 2.6 -5.96046e-08
v -0.0999999 2.6 -5.96046e-08
v -0.2 2.7 0.4
v -0.0999999 2.7 0.4
v -0.2 2.7 0.0999999
v -0.0999999 2.7 0.0999999
v -0.3 2.2 0.2
v -0.2 2.2 0.2
v -0.0999999 2.2 0.2
v 1.19209e-07 2.2 0.2
v -0.3 2.2 0.0999999
v -0.2 2.2 0.0999999
v -0.0999999 2.2 0.0999999
v 1.19209e-07 2.2 0.0999999
v -0.3 2.2 -5.96046e-08
v -0.2 2.2 -5.96046e-08
v -0.0999999 2.2 -5.96046e-08
v 1.19209e-07 2.2 -5.96046e-08
v -0.3 2.2 -0.1
v -0.2 2.2 -0.1
v -0.0999999 2.2 -0.1
v 1.19209e-07 2.2 -0.1
v -0.9 2.3 0.4
v 0.6 2.3 0.4
v -0.4 2.3 0.3
v 0.1 2.3 0.3
v -0.3 2.3 0.2
v 1.19209e-07 2.3 0.2
v -0.3 2.3 -0.1
v 1.19209e-07 2.3 -0.1
v -0.4 2.3 -0.2
v 0.1 2.3 -0.2
v -0.9 2.3 -0.4
v 0.6 2.3 -0.4
v -1 2.4 0.6
v -0.5 2.4 0.6
v 0.2 2.4 0.6
v 0.7 2.4 0.6
v -0.9 2.4 0.4
v -0.5 2.4 0.4
v 0.2 2.4 0.4
v 0.6 2.4 0.4
v -0.9 2.4 -0.4
v 0.6 2.4 -0.4
v -1 2.4 -0.6
v 0.7 2.4 -0.6
v -0.4 2.7 0.4
v -0.3 2.7 0.4
v 1.19209e-07 2.7 0.4
v 0.1 2.7 0.4
v -0.4 2.7 0.3
v -0.3 2.7 0.3
v 1.19209e-07 2.7 0.3
v 0.1 2.7 0.3
v -0.5 2.8 0.6
v 0.2 2.8 0.6
v -0.5 2.8 0.4
v -0.2 2.8 0.4
v -0.0999999 2.8 0.4
v 0.2 2.8 0.4
v -0.2 2.8 -5.96046e-08
v -0.0999999 2.8 -5.96046e-08

# faces
f 3/3/1 2/3/1 1/3/1
f 4/3/1 2/3/1 3/3/1
f 7/4/1 6/4/1 5/4/1
f 8/4/1 6/4/1 7/4/1
f 11/1/1 10/1/1 9/1/1
f 12/1/1 10/1/1 11/1/1
f 16/4/1 14/4/1 13/4/1
f 17/4/1 16/4/1 15/4/1
f 18/4/1 14/4/1 16/4/1
f 18/4/1 16/4/1 17/4/1
f 23/5/1 20/5/1 19/5/1
f 23/5/1 22/5/1 21/5/1
f 23/5/1 21/5/1 20/5/1
f 24/5/1 22/5/1 23/5/1
f 27/2/1 26/2/1 25/2/1
f 28/2/1 26/2/1 27/2/1
f 31/3/1 30/3/1 29/3/1
f 32/3/1 30/3/1 31/3/1
f 33/3/2 34/3/2 35/3/2
f 35/3/2 34/3/2 36/3/2
f 37/5/2 38/5/2 41/5/2
f 39/5/2 40/5/2 41/5/2
f 38/5/2 39/5/2 41/5/2
f 41/5/2 40/5/2 42/5/2
f 43/1/2 44/1/2 45/1/2
f 45/1/2 44/1/2 46/1/2
f 47/4/2 48/4/2 50/4/2
f 49/4/2 50/4/2 51/4/2
f 50/4/2 48/4/2 52/4/2
f 51/4/2 50/4/2 52/4/2
f 53/2/2 54/2/2 55/2/2
f 55/2/2 54/2/2 56/2/2
f 57/4/2 58/4/2 59/4/2
f 59/4/2 58/4/2 60/4/2
f 61/3/2 62/3/2 63/3/2
f 63/3/2 62/3/2 64/3/2
f 67/3/3 66/3/3 65/3/3
f 69/3/3 67/3/3 65/3/3
f 69/4/3 68/4/3 67/4/3
f 70/4/3 68/4/3 69/4/3
f 71/3/3 69/3/3 65/3/3
f 72/3/3 69/3/3 71/3/3
f 75/4/3 74/4/3 73/4/3
f 76/4/3 74/4/3 75/4/3
f 79/5/3 78/5/3 77/5/3
f 80/5/3 78/5/3 79/5/3
f 81/5/3 78/5/3 80/5/3
f 82/5/3 78/5/3 81/5/3
f 85/3/3 84/3/3 83/3/3
f 86/3/3 84/3/3 85/3/3
f 87/3/4 88/3/4 89/3/4
f 89/4/4 90/4/4 91/4/4
f 91/4/4 90/4/4 92/4/4
f 89/4/4 91/4/4 93/4/4
f 92/4/4 90/4/4 94/4/4
f 94/4/4 90/4/4 95/4/4
f 93/4/4 94/4/4 95/4/4
f 95/4/4 90/4/4 96/4/4
f 93/4/4 95/4/4 97/4/4
f 89/4/4 93/4/4 99/4/4
f 97/4/4 98/4/4 99/4/4
f 93/4/4 97/4/4 99/4/4
f 99/4/4 98/4/4 100/4/4
f 89/4/4 99/4/4 101/4/4
f 100/4/4 98/4/4 102/4/4
f 87/3/4 89/3/4 103/3/4
f 101/4/4 102/4/4 103/4/4
f 89/4/4 101/4/4 103/4/4
f 102/4/4 98/4/4 104/4/4
f 103/4/4 102/4/4 104/4/4
f 87/3/4 103/3/4 105/3/4
f 105/3/4 103/3/4 106/3/4
f 107/1/4 108/1/4 109/1/4
f 109/1/4 108/1/4 110/1/4
f 111/2/4 112/2/4 113/2/4
f 113/2/4 112/2/4 114/2/4
f 115/5/4 116/5/4 117/5/4
f 117/5/4 116/5/4 118/5/4
f 118/5/4 116/5/4 119/5/4
f 119/5/4 116/5/4 120/5/4
f 121/4/4 122/4/4 123/4/4
f 123/4/4 122/4/4 124/4/4
f 125/3/4 126/3/4 127/3/4
f 127/3/4 126/3/4 128/3/4
f 131/3/5 130/3/5 129/3/5
f 132/3/5 130/3/5 131/3/5
f 137/1/5 134/1/5 133/1/5
f 138/1/5 134/1/5 137/1/5
f 139/2/5 136/2/5 135/2/5
f 140/2/5 136/2/5 139/2/5
f 143/4/5 142/4/5 141/4/5
f 144/4/5 142/4/5 143/4/5
f 147/4/5 146/4/5 145/4/5
f 148/4/5 146/4/5 147/4/5
f 149/5/6 150/5/6 153/5/6
f 150/6/6 151/6/6 154/6/6
f 153/5/6 150/5/6 154/5/6
f 151/5/6 152/5/6 155/5/6
f 154/6/6 151/6/6 155/6/6
f 155/5/6 152/5/6 156/5/6
f 153/6/6 154/6/6 157/6/6
f 154/5/6 155/5/6 158/5/6
f 157/6/6 154/6/6 158/6/6
f 155/6/6 156/6/6 159/6/6
f 158/5/6 155/5/6 159/5/6
f 159/6/6 156/6/6 160/6/6
f 157/5/6 158/5/6 161/5/6
f 158/6/6 159/6/6 162/6/6
f 161/5/6 158/5/6 162/5/6
f 159/5/6 160/5/6 163/5/6
f 162/6/6 159/6/6 163/6/6
f 163/5/6 160/5/6 164/5/6
f 165/3/6 166/3/6 167/3/6
f 167/3/6 166/3/6 168/3/6
f 167/5/6 168/5/6 169/5/6
f 169/5/6 168/5/6 170/5/6
f 167/5/6 169/5/6 171/5/6
f 170/5/6 168/5/6 172/5/6
f 165/3/6 167/3/6 173/3/6
f 171/5/6 172/5/6 173/5/6
f 167/5/6 171/5/6 173/5/6
f 172/5/6 168/5/6 174/5/6
f 173/5/6 172/5/6 174/5/6
f 168/3/6 166/3/6 174/3/6
f 165/3/6 173/3/6 175/3/6
f 173/3/6 174/3/6 175/3/6
f 174/3/6 166/3/6 176/3/6
f 175/3/6 174/3/6 176/3/6
f 177/3/6 178/3/6 181/3/6
f 181/3/6 178/3/6 182/3/6
f 179/3/6 180/3/6 183/3/6
f 183/3/6 180/3/6 184/3/6
f 177/3/6 181/3/6 185/3/6
f 184/3/6 180/3/6 186/3/6
f 177/3/6 185/3/6 187/3/6
f 185/3/6 186/3/6 187/3/6
f 186/3/6 180/3/6 188/3/6
f 187/3/6 186/3/6 188/3/6
f 189/1/6 190/1/6 193/1/6
f 193/1/6 190/1/6 194/1/6
f 191/2/6 192/2/6 195/2/6
f 195/2/6 192/2/6 196/2/6
f 197/4/6 198/4/6 199/4/6
f 199/4/6 198/4/6 200/4/6
f 200/4/6 198/4/6 201/4/6
f 201/4/6 198/4/6 202/4/6
f 200/4/6 201/4/6 203/4/6
f 203/4/6 201/4/6 204/4/6
