# MagicaVoxel @ Ephtracy

# group
o 

# material
mtllib wc with chocolate.mtl
usemtl palette

# normals
vn -1 0 0
vn 1 0 0
vn 0 0 1
vn 0 0 -1
vn 0 -1 0
vn 0 1 0

# texcoords
vt 0.306641 0.5
vt 0.396484 0.5
vt 0.615234 0.5
vt 0.958984 0.5
vt 0.962891 0.5
vt 0.966797 0.5
vt 0.994141 0.5

# verts
v -0.6 0 1.1
v -0.6 0 -0.5
v -0.6 0.9 -0.3
v -0.6 0.9 -0.4
v -0.6 1 1.1
v -0.6 1 -0.2
v -0.6 1 -0.3
v -0.6 1 -0.4
v -0.6 1 -0.5
v -0.6 1.1 -0.2
v -0.6 1.1 -0.3
v -0.6 1.1 -0.4
v -0.6 1.1 -0.5
v -0.6 1.2 -0.3
v -0.6 1.2 -0.4
v -0.6 2.3 -0.2
v -0.6 2.3 -0.5
v -0.5 0 -0.5
v -0.5 0 -1.3
v -0.5 1 -0.5
v -0.5 1.1 -0.5
v -0.5 2.2 -0.5
v -0.5 2.2 -1.3
v -0.2 0.6 0.2
v -0.2 0.6 0
v -0.2 0.7 0.2
v -0.2 0.7 0
v -0.0999999 0.6 0.4
v -0.0999999 0.6 0.2
v -0.0999999 0.7 0.4
v -0.0999999 0.7 0.2
v -0.0999999 2.2 -0.7
v -0.0999999 2.2 -0.9
v -0.0999999 2.3 -0.7
v -0.0999999 2.3 -0.9
v 0.4 0.6 0.8
v 0.4 0.6 -0.2
v 0.4 1 0.8
v 0.4 1 -0.2
v -0.3 0.6 0.8
v -0.3 0.6 -0.2
v -0.3 1 0.8
v -0.3 1 -0.2
v -0.0999999 0.6 0.1
v -0.0999999 0.6 0
v -0.0999999 0.7 0.1
v -0.0999999 0.7 0
v 5.96046e-08 0.6 0.4
v 5.96046e-08 0.6 0.1
v 5.96046e-08 0.7 0.4
v 5.96046e-08 0.7 0.1
v 0.2 2.2 -0.7
v 0.2 2.2 -0.9
v 0.2 2.3 -0.7
v 0.2 2.3 -0.9
v 0.6 0 -0.5
v 0.6 0 -1.3
v 0.6 1 -0.5
v 0.6 1.1 -0.5
v 0.6 2.2 -0.5
v 0.6 2.2 -1.3
v 0.7 0 1.1
v 0.7 0 -0.5
v 0.7 0.9 -0.3
v 0.7 0.9 -0.4
v 0.7 1 1.1
v 0.7 1 -0.2
v 0.7 1 -0.3
v 0.7 1 -0.4
v 0.7 1 -0.5
v 0.7 1.1 -0.2
v 0.7 1.1 -0.3
v 0.7 1.1 -0.4
v 0.7 1.1 -0.5
v 0.7 1.2 -0.3
v 0.7 1.2 -0.4
v 0.7 2.3 -0.2
v 0.7 2.3 -0.5
v -0.6 0 1.1
v -0.6 1 1.1
v 0.7 0 1.1
v 0.7 1 1.1
v -0.0999999 0.6 0.4
v -0.0999999 0.7 0.4
v 5.96046e-08 0.6 0.4
v 5.96046e-08 0.7 0.4
v -0.2 0.6 0.2
v -0.2 0.7 0.2
v -0.0999999 0.6 0.2
v -0.0999999 0.7 0.2
v -0.6 1 -0.2
v -0.6 1.1 -0.2
v -0.6 2.3 -0.2
v -0.5 1 -0.2
v -0.5 1.1 -0.2
v -0.3 0.6 -0.2
v -0.3 1 -0.2
v 0.4 0.6 -0.2
v 0.4 1 -0.2
v 0.6 1 -0.2
v 0.6 1.1 -0.2
v 0.7 1 -0.2
v 0.7 1.1 -0.2
v 0.7 2.3 -0.2
v -0.0999999 2.2 -0.7
v -0.0999999 2.3 -0.7
v 0.2 2.2 -0.7
v 0.2 2.3 -0.7
v -0.3 0.6 0.8
v -0.3 1 0.8
v 0.4 0.6 0.8
v 0.4 1 0.8
v -0.0999999 0.6 0.1
v -0.0999999 0.7 0.1
v 5.96046e-08 0.6 0.1
v 5.96046e-08 0.7 0.1
v -0.2 0.6 0
v -0.2 0.7 0
v -0.0999999 0.6 0
v -0.0999999 0.7 0
v -0.6 0 -0.5
v -0.6 1 -0.5
v -0.6 1.1 -0.5
v -0.6 2.3 -0.5
v -0.5 0 -0.5
v -0.5 1 -0.5
v -0.5 1.1 -0.5
v -0.5 2.2 -0.5
v 0.6 0 -0.5
v 0.6 1 -0.5
v 0.6 1.1 -0.5
v 0.6 2.2 -0.5
v 0.7 0 -0.5
v 0.7 1 -0.5
v 0.7 1.1 -0.5
v 0.7 2.3 -0.5
v -0.0999999 2.2 -0.9
v -0.0999999 2.3 -0.9
v 0.2 2.2 -0.9
v 0.2 2.3 -0.9
v -0.5 0 -1.3
v -0.5 2.2 -1.3
v 0.6 0 -1.3
v 0.6 2.2 -1.3
v -0.6 0 1.1
v 0.7 0 1.1
v -0.6 0 -0.5
v -0.5 0 -0.5
v 0.6 0 -0.5
v 0.7 0 -0.5
v -0.5 0 -1.3
v 0.6 0 -1.3
v -0.3 0.6 0.8
v 0.4 0.6 0.8
v -0.0999999 0.6 0.4
v 5.96046e-08 0.6 0.4
v -0.2 0.6 0.2
v -0.0999999 0.6 0.2
v -0.0999999 0.6 0.1
v 5.96046e-08 0.6 0.1
v -0.2 0.6 0
v -0.0999999 0.6 0
v -0.3 0.6 -0.2
v 0.4 0.6 -0.2
v -0.0999999 0.7 0.4
v 5.96046e-08 0.7 0.4
v -0.2 0.7 0.2
v -0.0999999 0.7 0.2
v -0.0999999 0.7 0.1
v 5.96046e-08 0.7 0.1
v -0.2 0.7 0
v -0.0999999 0.7 0
v -0.6 1 1.1
v 0.7 1 1.1
v -0.3 1 0.8
v 0.4 1 0.8
v -0.6 1 -0.2
v -0.5 1 -0.2
v -0.3 1 -0.2
v 0.4 1 -0.2
v 0.6 1 -0.2
v 0.7 1 -0.2
v -0.5 2.2 -0.5
v 0.6 2.2 -0.5
v -0.0999999 2.2 -0.7
v 0.2 2.2 -0.7
v -0.0999999 2.2 -0.9
v 0.2 2.2 -0.9
v -0.5 2.2 -1.3
v 0.6 2.2 -1.3
v -0.6 2.3 -0.2
v 0.7 2.3 -0.2
v -0.6 2.3 -0.5
v 0.7 2.3 -0.5
v -0.0999999 2.3 -0.7
v 0.2 2.3 -0.7
v -0.0999999 2.3 -0.9
v 0.2 2.3 -0.9

# faces
f 3/4/1 2/4/1 1/4/1
f 4/4/1 2/4/1 3/4/1
f 5/4/1 3/4/1 1/4/1
f 6/4/1 3/4/1 5/4/1
f 7/7/1 4/7/1 3/7/1
f 7/4/1 3/4/1 6/4/1
f 8/4/1 2/4/1 4/4/1
f 8/7/1 4/7/1 7/7/1
f 9/4/1 2/4/1 8/4/1
f 10/7/1 7/7/1 6/7/1
f 10/7/1 9/7/1 8/7/1
f 10/7/1 8/7/1 7/7/1
f 11/7/1 9/7/1 10/7/1
f 12/7/1 9/7/1 11/7/1
f 13/7/1 9/7/1 12/7/1
f 14/6/1 11/6/1 10/6/1
f 14/7/1 12/7/1 11/7/1
f 15/6/1 13/6/1 12/6/1
f 15/7/1 12/7/1 14/7/1
f 16/6/1 14/6/1 10/6/1
f 16/6/1 15/6/1 14/6/1
f 17/6/1 13/6/1 15/6/1
f 17/6/1 15/6/1 16/6/1
f 20/4/1 19/4/1 18/4/1
f 21/4/1 19/4/1 20/4/1
f 22/4/1 19/4/1 21/4/1
f 23/4/1 19/4/1 22/4/1
f 26/2/1 25/2/1 24/2/1
f 27/2/1 25/2/1 26/2/1
f 30/2/1 29/2/1 28/2/1
f 31/2/1 29/2/1 30/2/1
f 34/5/1 33/5/1 32/5/1
f 35/5/1 33/5/1 34/5/1
f 38/4/1 37/4/1 36/4/1
f 39/4/1 37/4/1 38/4/1
f 40/4/2 41/4/2 42/4/2
f 42/4/2 41/4/2 43/4/2
f 44/2/2 45/2/2 46/2/2
f 46/2/2 45/2/2 47/2/2
f 48/2/2 49/2/2 50/2/2
f 50/2/2 49/2/2 51/2/2
f 52/5/2 53/5/2 54/5/2
f 54/5/2 53/5/2 55/5/2
f 56/4/2 57/4/2 58/4/2
f 58/4/2 57/4/2 59/4/2
f 59/4/2 57/4/2 60/4/2
f 60/4/2 57/4/2 61/4/2
f 62/4/2 63/4/2 64/4/2
f 64/4/2 63/4/2 65/4/2
f 62/4/2 64/4/2 66/4/2
f 66/4/2 64/4/2 67/4/2
f 64/7/2 65/7/2 68/7/2
f 67/4/2 64/4/2 68/4/2
f 65/4/2 63/4/2 69/4/2
f 68/7/2 65/7/2 69/7/2
f 69/4/2 63/4/2 70/4/2
f 67/7/2 68/7/2 71/7/2
f 69/7/2 70/7/2 71/7/2
f 68/7/2 69/7/2 71/7/2
f 71/7/2 70/7/2 72/7/2
f 72/7/2 70/7/2 73/7/2
f 73/7/2 70/7/2 74/7/2
f 71/6/2 72/6/2 75/6/2
f 72/7/2 73/7/2 75/7/2
f 73/6/2 74/6/2 76/6/2
f 75/7/2 73/7/2 76/7/2
f 71/6/2 75/6/2 77/6/2
f 75/6/2 76/6/2 77/6/2
f 76/6/2 74/6/2 78/6/2
f 77/6/2 76/6/2 78/6/2
f 81/4/3 80/4/3 79/4/3
f 82/4/3 80/4/3 81/4/3
f 85/2/3 84/2/3 83/2/3
f 86/2/3 84/2/3 85/2/3
f 89/2/3 88/2/3 87/2/3
f 90/2/3 88/2/3 89/2/3
f 94/7/3 92/7/3 91/7/3
f 95/6/3 93/6/3 92/6/3
f 95/7/3 92/7/3 94/7/3
f 97/6/3 95/6/3 94/6/3
f 98/4/3 97/4/3 96/4/3
f 99/6/3 95/6/3 97/6/3
f 99/4/3 97/4/3 98/4/3
f 100/6/3 95/6/3 99/6/3
f 101/6/3 93/6/3 95/6/3
f 101/6/3 95/6/3 100/6/3
f 102/7/3 101/7/3 100/7/3
f 103/6/3 93/6/3 101/6/3
f 103/7/3 101/7/3 102/7/3
f 104/6/3 93/6/3 103/6/3
f 107/5/3 106/5/3 105/5/3
f 108/5/3 106/5/3 107/5/3
f 109/4/4 110/4/4 111/4/4
f 111/4/4 110/4/4 112/4/4
f 113/2/4 114/2/4 115/2/4
f 115/2/4 114/2/4 116/2/4
f 117/2/4 118/2/4 119/2/4
f 119/2/4 118/2/4 120/2/4
f 121/4/4 122/4/4 125/4/4
f 122/7/4 123/7/4 126/7/4
f 125/4/4 122/4/4 126/4/4
f 123/6/4 124/6/4 127/6/4
f 126/7/4 123/7/4 127/7/4
f 127/6/4 124/6/4 128/6/4
f 128/6/4 124/6/4 132/6/4
f 129/4/4 130/4/4 133/4/4
f 130/7/4 131/7/4 134/7/4
f 133/4/4 130/4/4 134/4/4
f 131/6/4 132/6/4 135/6/4
f 134/7/4 131/7/4 135/7/4
f 132/6/4 124/6/4 136/6/4
f 135/6/4 132/6/4 136/6/4
f 137/5/4 138/5/4 139/5/4
f 139/5/4 138/5/4 140/5/4
f 141/4/4 142/4/4 143/4/4
f 143/4/4 142/4/4 144/4/4
f 147/4/5 146/4/5 145/4/5
f 148/4/5 146/4/5 147/4/5
f 149/4/5 146/4/5 148/4/5
f 150/4/5 146/4/5 149/4/5
f 151/4/5 149/4/5 148/4/5
f 152/4/5 149/4/5 151/4/5
f 153/3/6 154/3/6 155/3/6
f 155/3/6 154/3/6 156/3/6
f 153/3/6 155/3/6 157/3/6
f 157/3/6 155/3/6 158/3/6
f 156/3/6 154/3/6 160/3/6
f 153/3/6 157/3/6 161/3/6
f 159/3/6 160/3/6 162/3/6
f 153/3/6 161/3/6 163/3/6
f 161/3/6 162/3/6 163/3/6
f 162/3/6 160/3/6 164/3/6
f 163/3/6 162/3/6 164/3/6
f 160/3/6 154/3/6 164/3/6
f 165/2/6 166/2/6 168/2/6
f 168/2/6 166/2/6 169/2/6
f 167/2/6 168/2/6 169/2/6
f 169/2/6 166/2/6 170/2/6
f 167/2/6 169/2/6 171/2/6
f 171/2/6 169/2/6 172/2/6
f 173/4/6 174/4/6 175/4/6
f 175/4/6 174/4/6 176/4/6
f 173/4/6 175/4/6 177/4/6
f 177/4/6 175/4/6 178/4/6
f 178/4/6 175/4/6 179/4/6
f 176/4/6 174/4/6 180/4/6
f 180/4/6 174/4/6 181/4/6
f 181/4/6 174/4/6 182/4/6
f 183/4/6 184/4/6 185/4/6
f 185/4/6 184/4/6 186/4/6
f 183/4/6 185/4/6 187/4/6
f 186/4/6 184/4/6 188/4/6
f 183/4/6 187/4/6 189/4/6
f 187/4/6 188/4/6 189/4/6
f 188/4/6 184/4/6 190/4/6
f 189/4/6 188/4/6 190/4/6
f 191/6/6 192/6/6 193/6/6
f 193/6/6 192/6/6 194/6/6
f 195/5/6 196/5/6 197/5/6
f 197/5/6 196/5/6 198/5/6
